<?xml version="1.0" encoding="UTF-8"?>
<svg id="Layer_2" xmlns="http://www.w3.org/2000/svg" version="1.1" viewBox="0 0 3259.1 679.3">
  <!-- Generator: Adobe Illustrator 29.2.1, SVG Export Plug-In . SVG Version: 2.1.0 Build 116)  -->
  <defs>
    <style>
      .st0 {
        fill: #111;
      }

      .st1 {
        font-family: ArialNarrow-Bold, 'Arial Narrow';
        font-size: 175px;
        font-weight: 700;
      }

      .st1, .st2 {
        fill: #d52927;
      }
    </style>
  </defs>
  <path class="st0" d="M603.4,269.5c-17.5-18.1-37.3-38.2-42.1-42.2l-1.1-.9q-16.8-14.1-41.4-18.1l-1.1-.2c-21.3-3.4-42.4-6.3-62.6-8.6-20.3-2.2-40.6-3.9-60.3-5-10.1-.5-25.2-.8-41.7-.8s-32.7.3-41.8.9c-26,1.6-51.8,5-77.2,10.2-23.7,5-43.3,11.2-56.5,18-7.9,4-9.7,5.7-47.9,44.7l-39.7,40.5-33.1.5c-15.3.2-24.2.4-29.2.8-5,.4-6.5,1-9,2.1-3.2,1.5-6.2,3.6-8.7,6.1-4.2,4.6-7.6,13.5-7.6,19.8v4.7l16.9,16.9,17,16.9-2.4,1.9c-3.2,2.5-10.2,13.2-15.4,23.5l-4.1,8.3v92.7l14.8,6.1c27.7,11.6,56.1,21.2,85,29,28.6,7.5,57.8,12.9,87.1,16.3,7.1.9,17.5,1.6,30.1,2.1,11.8.5,25,.7,37,.7s23.5-.3,30.9-.8c16.8-1.3,33.5-3.3,49.7-6,16.2-2.7,32.2-6.1,47.7-10.2,15.5-4.1,30.9-8.9,45.8-14.4s29.6-11.7,43.7-18.6c19.4-9.4,30.9-15.8,45.3-25.2,9.9-6.4,10.8-7.3,11.3-10.6,1.6-10.7,4.1-19.6,7.7-27.1,2.3-4.8,5.3-9.2,8.8-13.2,3.6-4.1,7.7-7.6,12.2-10.7,4.7-3.2,9.7-5.7,15-7.7,5.5-2.1,11.3-3.5,17.2-4.3,3.8-.6,6.7-1.3,9.5-3.5,2.5-2,4.9-4.9,8.9-11,4.5-6.9,8.1-14.4,10.8-22.2,3-8.3,5.1-16.9,6.3-25.7.7-6.9,1-13.8,1-20.7,0-8.6-.2-15-.7-16.2-.7-1.7-19.2-21.3-36.1-38.8ZM187.9,471.9l-.6,2.6h-25.3c-14.7,0-23.2-.3-30.2-1.1-7.1-.8-14.1-2.4-20.9-4.6-6.2-1.9-12.2-4.5-17.8-7.8-4.9-2.9-9.3-6.5-13-10.7-3.5-3.9-6.2-8.4-8-13.2-1.8-5-2.8-10.2-2.7-15.5,0-4.9.8-7.9,2.6-10.1s4.8-3.7,10.1-5c3.5-.6,7.1-.8,10.6-.7,9.8,0,25.3.9,34.7,2.7,17.1,3.1,29.6,6.7,36.2,10.2,2.7,1.4,5.2,3.2,7.5,5.2,2.4,2.1,4.5,4.4,6.3,7,1.9,2.6,3.6,5.5,5,8.4,1.4,3.1,2.6,6.3,3.4,9.5,1,4.3,1.8,8.6,2.2,13,.5,4.7.5,8.5,0,10.1ZM136.2,350.5l1.2-2.3c.3-.6,2.8-5.2,6.4-11.6,4.1-7.4,9.8-17.6,15.8-28.6,17.6-31.7,22.1-39,26.4-43.2,5.7-5.6,14.6-10.4,23.3-12.7,4.7-1.3,27.5-1.5,162.9-1.5h157.3c0,0,5.9,3,5.9,3,3,1.7,5.9,3.7,8.5,5.9,3.2,2.8,6.2,5.8,9,9,6.9,7.9,13,16.4,18.4,25.5,6,10,18.4,35.4,23.3,47.7l3.5,8.8H136.2Z"/>
  <g id="CarWise_Final_Logo_Black_and_Red">
    <path id="Path_208189" class="st2" d="M401.4,7.6c-47.7,3-103.5,11.1-151.5,22-28,6.3-66.9,17.3-65.7,18.5.3.3,6.9-.6,14.8-2,73.9-13,150.6-16.1,220.4-9,81.8,8.3,163.8,32.3,226.9,66.5,32.8,17.9,52.5,32.7,80.9,60.7,41.6,41.1,64.9,80.5,73.9,125.3,3.3,16.4,3.3,47.3,0,63.6-10,49.9-36.9,95.6-81.8,139.3-18.5,17.9-21.9,20.5-41.9,32-33.5,19.1-78.1,40.1-113.5,53.3-116.4,43.6-237,53.8-353.5,30.1-62.1-12.7-124.9-35.9-171.3-63.4-5.7-3.4-10.6-6-10.8-5.7-.6.6,9.2,9.7,18.7,17.4,67.2,54.5,181.4,94.9,312.2,110.4,32,3.8,90.3,3.5,141.2-.6,140-11.5,259.5-53.3,342.1-119.7,14.7-11.8,30.9-27.1,38.9-36.8,3.3-4,9.6-11.6,14.1-16.9,28.1-33.8,47.7-70,56.9-105.3,5-19.6,6.7-32.5,6.7-52.8s-1.6-32.8-6.3-51.4c-14.1-56.3-55-114.4-110.3-156.8C750.6,55.8,639.2,16.5,506.1,7.5c-17.6-1.1-85.3-1.1-104.7,0Z"/>
    <path id="Path_208190" class="st2" d="M291.4,42.1c-31.6,1.9-72.7,6.1-80,8.3-2.5.8-2,.9,3.5,1,90.4,1.6,167.7,13.1,232.5,34.6,35.1,11.7,58.8,22.8,85,39.9,70.4,46.1,109.6,94.6,121.6,150.4,3,14,3.7,38.3,1.5,53-6.1,41-24.6,79.1-56.5,116.5-5.6,6.6-11.4,11.7-22.1,19.6-67,49.7-138,81.3-216.5,96.5-32.1,6.2-56.5,8.6-92.5,9.3-45.9.9-81.9-2.3-127.5-11.3-30.5-6-73.8-18.6-95.4-27.8-13.5-5.7-11.9-3.6,6.2,8.6,40.8,27.4,102.4,46.8,175.4,55.3,69.7,8.1,166.9,6.6,207.7-3.1,106.2-25.3,186-59.5,242.1-103.8,13.5-10.7,35.4-32.8,44.8-45.3,18.8-25.2,31.1-52.8,36.2-81.3,2.6-14.7,3.1-40.8,1.1-56.8-4.1-32-16.5-67.4-33.5-95.5-11-18.3-46.9-53.4-76.1-74.3-74.8-53.8-161.3-83.2-272-92.4-12.5-1.1-74.3-2.1-85.5-1.4Z"/>
  </g>
  <g>
    <path class="st0" d="M1659.5,457.2c6.4-5.2,9.2-7.2,10-7.2,0,0,.2,0,.2,0,0,.2,0,.4,0,.6-.8,3.5-3.5,24.6-3.5,26.8s.2,1.5,5,1.7c4.7.2,13.9.2,32,.2s37-.3,37-.6,10.6-76.8,20.5-147.7c10.2-73.1,20.7-148.4,21.1-151l.6-3.7h-75l-.6,2.7c-.3,1.6-1.5,9.7-2.6,18.3-.2,1.5-.4,2.9-.5,4.2-1.3,10.5-1.8,14.4-3,14.4s-1.6-1.3-3-3.2h0s0,0,0,0c-.3-.4-.7-.9-1-1.4-2.8-4-6-7.7-9.3-11.3-3.2-3.3-6.7-6.4-10.5-9.1-13.3-10.2-28.8-17.1-45.3-20.1-6.7-1-13.4-1.5-20.2-1.4-8.8,0-17.7.6-26.4,2-7,1.2-14,3-20.8,5.3-7,2.3-13.8,5.1-20.5,8.3-6.7,3.3-13.3,7-19.5,11.1-6.3,4.1-12.3,8.6-17.9,13.5-14.3,12.3-27.2,28.8-37.4,47.7-4.9,9.2-9.1,18.7-12.5,28.6-3.3,9.6-5.6,19.4-7.1,29.4-1.8,12.7-2.2,25.5-1.2,38.3.9,12.3,3.2,24.4,6.7,36.2,3.5,11.5,8.4,22.6,14.4,33,6.1,10.4,13.4,20.1,21.8,28.8,4.1,4.3,8.6,8.3,13.2,12,4.4,3.5,9.1,6.5,14,9.2,5,2.7,10.2,5,15.5,6.8,5.8,2,11.8,3.6,17.8,4.8,7.7,1.6,13.2,2.1,26.7,2.2,7.6,0,15.3-.4,22.8-1.5,6.8-1,13.5-2.7,19.9-5,6.6-2.4,12.9-5.5,18.8-9.1,6.8-4.2,13.4-8.9,19.6-13.9ZM1607.8,419.5c-3.6.4-7.3.7-11,.7-7,0-14-.9-20.8-2.6-6.5-1.7-12.6-4.3-18.4-7.7-5.7-3.4-10.8-7.5-15.3-12.4-4.6-5-8.5-10.7-11.6-16.8-3-6.2-5.2-12.8-6.5-19.6-1.4-7.4-2-14.9-1.9-22.5.1-7.8,1-15.5,2.7-23.1,1.6-7.4,4-14.7,7.2-21.5,2.4-5.4,5.3-10.5,8.7-15.3,3.5-4.9,7.4-9.4,11.7-13.6,6.4-6.4,13.7-11.9,21.6-16.2,7.7-4.2,16-7.1,24.7-8.8,5.3-.8,10.7-1.2,16-1.1,9.1,0,18.1.8,22.8,2,11.2,3.2,21.5,8.9,30.1,16.8,7.7,7.2,13.8,16,17.7,25.8,3.8,9.7,5.7,20.6,5.7,33.4,0,10.1-1.3,20.1-4,29.7-3,10.1-7.3,19.8-12.7,28.8-3.7,6.3-8,12.1-12.8,17.5-4.5,5-9.6,9.4-15.2,13.1-5.6,3.7-11.6,6.6-17.9,8.8-6.8,2.3-13.7,3.9-20.8,4.7Z"/>
    <path class="st0" d="M2576.3,142.7c5.6,2.3,11.5,3.5,17.6,3.5h0c12.3.1,24.1-4.9,32.6-13.8,3.7-3.7,6.7-7.9,9.1-12.5,1.6-3.4,2.4-5.2,2.9-7.7.4-2.5.4-5.9.4-12.1s0-9.7-.5-12.2c-.4-2.5-1.3-4.3-2.9-7.8-6.5-13.1-18.7-22.5-33-25.5-3-.6-6.1-.9-9.2-.9-6.2,0-12.3,1.3-18,3.9-5.9,2.8-11.2,6.6-15.7,11.4-3.9,4.1-7,9-9.1,14.2-2.1,5.4-3.1,11.1-3.1,16.9,0,12.5,5,24.5,14.1,33.1,4.3,4.1,9.3,7.4,14.8,9.6Z"/>
    <path class="st0" d="M1347.8,462c6.8-3.3,15.9-8.3,23.8-13,7.8-4.7,12.7-8.1,12.7-8.8s-10.6-14.6-21.1-28.6c-10.5-13.9-21.9-29.1-23.6-31.1,0,0-.2-.1-.3-.1-.9,0-3.8,1.8-13.2,8.2-26.8,18.1-62.5,28.5-97.9,28.5-8.3,0-16.6-.6-24.8-1.8-8-1.2-15.8-3-23.5-5.4-10-3.3-19.5-7.7-28.4-13.3-8.8-5.5-16.9-12.1-24.2-19.6-7.2-7.3-13.4-15.5-18.6-24.4-5.1-8.7-9-18.1-11.7-27.8-6.8-26.6-5.9-54.6,2.6-80.7,4.4-13.2,10.6-25.7,18.4-37.3,7.8-11.6,17.1-22.1,27.6-31.2,10.7-9.4,22.5-17.3,35.2-23.8,13.1-6.6,26.9-11.6,41.1-14.9,9.6-2.1,23-3.4,36-3.4,6.7,0,13.4.4,20.1,1.3,13.5,2.1,26.6,6.2,38.9,12,11.9,5.7,22.8,13.2,32.3,22.3l7.6,7.2,4.6-4.1c18.5-16.8,51-47.3,51-48s-2.4-3-4.8-5.2c-17-15.3-36.2-28-57-37.7-20.6-9.5-42.6-15.9-65.2-18.8-7-.9-22.2-1.6-36.2-1.6s-13.9.2-17.8.6c-20.2,1.9-40.1,6.2-59.3,12.8-37.4,13-70.9,35.1-97.5,64.4-13.5,14.9-25.2,31.4-34.6,49.2-9.2,17.2-16.2,35.6-20.6,54.6-4.3,18.4-6.1,37.3-5.4,56.2,1.7,45.1,18.2,88.4,46.9,123.2,4.3,5.2,8.8,10.2,13.7,14.9,9.5,9.2,20,17.3,31.4,24.1,5.8,3.4,11.7,6.5,17.9,9.3,6.3,2.9,12.8,5.4,19.4,7.5,6.7,2.2,13.8,4.2,21.1,5.8,7.2,1.6,14.9,3,22.8,4.2,5.4.8,17.7,1.2,33,1.2h0c1.5,0,3,0,4.5,0,23.6,0,30.5-.4,43-2.3,30.3-4.6,55.9-12.4,80.5-24.6Z"/>
    <path class="st0" d="M2845,395.7c.3-6.8-.3-13.7-1.5-20.4-1.6-8.6-4.6-16.8-8.7-24.5-4-7.3-9.4-14.3-17-22.2-5.8-6-12-11.7-18.4-17-7.1-5.9-16.4-13.1-30.1-23.3-11.3-8.4-18-13.8-22.3-18-4.3-4.2-6.6-7.5-7.6-11.2-.9-3.3-1-5.6-.3-7.7.7-2.1,2.3-4.2,5.2-7,4.7-4.6,11-7,17.5-6.9,8,0,17.1,3.1,27.3,9.1,6.6,4,19.1,16.2,24.8,24.2,2.2,3.1,4.3,5.7,4.6,5.7s8.8-13.2,18.3-28.5l17.8-28.5-4.3-5.8c-3.6-4.7-7.7-9.1-12-13.2-4.3-4.2-8.9-8-13.8-11.3-5.4-3.6-11.2-6.8-17.1-9.5-5.8-2.7-11.8-5-18-6.8-8.1-2.2-12.2-2.7-26-3-2.3,0-4.4,0-6.4,0-5.9,0-11.7.3-17.5,1.2-5.2.9-10.3,2.3-15.2,4.1-7.2,2.6-14.1,5.9-20.6,10-6.1,3.8-11.8,8.4-16.9,13.5-4.9,4.9-9.1,10.5-12.7,16.5-3.4,5.9-6.1,12.3-7.8,18.9-1.5,6.7-2.3,13.7-2.2,20.6-.1,6.9.6,13.7,2.2,20.4,3.3,12.3,9.1,23.8,17.2,33.6,8.4,10.5,20,21.1,36.4,33.4,9.2,6.8,20.4,15,25.5,18.9,12.9,9.6,20.2,16.7,23.9,22.8,1.8,2.7,2.8,5.9,2.9,9.1,0,3.2-.7,6.3-2.2,9.1-4.9,9.9-14.4,14.8-29.1,14.9h-.3c-4.9,0-9.9-.6-14.7-1.7-4.9-1.1-9.6-2.8-14-5.1-4.8-2.4-9.4-5.3-13.6-8.5-4.8-3.7-9.2-7.8-13.4-12.1-4-4.2-8.1-8.7-9.3-10.2-1.1-1.5-2.3-2.5-2.9-2.5,0,0,0,0-.1,0-.5,0-11.1,12.1-23.7,26.8l-22.8,26.4,12.5,12.2c13.3,12.9,25.6,22.6,37.6,29.4,5.8,3.4,12,6.2,18.3,8.5,6.1,2.2,12.5,3.9,18.9,4.9,8.4,1.4,17,2.1,25.6,2.1,13,0,26-1.8,38.4-5.5,11.3-3.3,21.9-8.7,31.2-15.9,6.9-5.5,14.2-13.7,20.5-23s11-19,13.3-27.2c1.7-6.5,2.6-13.1,2.7-19.8Z"/>
    <path class="st0" d="M2610.4,176.8c-5.2-.2-14.9-.3-31-.3h-36.9l-.6,3.7c-.6,3.5-10.9,78.5-20.8,151.2-9.6,70.7-19.8,146.2-19.8,146.8,0,1,8.1,1.3,37.5,1.3s25.9,0,31.2-.3c5.3-.2,6.3-.6,6.3-1.3s8.6-65,20-149.8c11-81.8,20-149.1,20-150s-.9-1.1-5.9-1.3Z"/>
    <path class="st0" d="M3188.3,424.6c0-.5-16.6-9.3-32-17.4-15.4-8-32.4-16.7-33.2-16.7s-3.6,2.1-6.7,4.5c-3.3,2.6-6.8,5-10.5,7.2-11.2,6.7-23.5,11.4-36.2,14-5.2.9-10.4,1.3-15.6,1.3-2.4,0-5.1,0-8.3-.2-17.2-.5-23.1-1.8-35.3-7.8-4.8-2.3-9.2-5.3-13.1-8.8-4-3.6-7.5-7.6-10.4-12.1-3-4.7-5.5-9.7-7.3-14.9-1.9-5.6-3.3-11.4-4-17.2l-.6-5.8,120.3-.2,120.4-.3,1.2-9c.9-7,1.3-14.1,1.3-21.1,0-7.2-.4-14.3-1.3-21.5-.9-7-2.1-14-3.9-20.9-1.6-6.6-3.7-13.1-6.3-19.4-9.2-22.7-22.5-41.6-39.7-56.1-17.2-14.5-37.9-24.5-61.7-29.6-7.5-1.6-14.1-2.1-30.7-2.4-3.9,0-7.2-.1-10.1-.1-6.3,0-12.7.3-19,1-6.2.9-12.3,2.1-18.4,3.7-13.2,3.4-25.9,8.5-37.8,15.3-12.2,7-23.5,15.3-33.6,25-10.3,9.7-19.4,20.6-27.2,32.5-7.7,11.8-13.9,24.5-18.4,37.8-3.6,10.9-5.8,18.4-7,26.8-1.2,8.4-1.4,17.7-1.4,32-.1,22.8.1,26.9,2.2,36.2,1.4,6.3,3.1,12.5,5.2,18.5,2,5.7,4.4,11.3,7.1,16.7,2.7,5.3,5.8,10.3,9.2,15.2,3.5,4.9,7.3,9.5,11.4,13.9,5.8,6.2,12.3,11.8,19.2,16.7,7,4.9,14.5,9.1,22.4,12.5,8.3,3.6,17,6.4,25.8,8.4,9.7,2.2,19.5,3.7,29.4,4.4,5.5.4,11.1.7,16.5.7h0c11.1,0,22.1-.9,33.1-2.7,10.6-1.7,21.1-4.4,31.2-7.9,9.9-3.4,19.5-7.7,28.6-12.9,9-5,17.4-11,25.3-17.6,4.4-3.9,8.7-8.1,12.7-12.5,4.4-4.8,7.1-8.2,7.1-9ZM2986.7,292.7c2.1-5.5,11.1-18.5,17.5-25.4,6.7-7.2,14.7-13.3,23.4-17.9,8.7-4.5,18.1-7.5,27.8-8.9,3.1-.4,6.3-.6,9.4-.5h0c8.6,0,18,1,24.1,2.5,8.2,2.2,16,5.8,22.9,10.7,7,4.8,13,10.8,17.8,17.8,4,5.8,10.7,19.7,10.7,22.2s-16.6,1.3-77.1,1.3-75.6,0-76.5-1.3c0-.1,0-.3,0-.5Z"/>
    <path class="st0" d="M1937.6,245.8c6.1-3.8,12.4-5.8,18.3-5.8,2.3,0,4.5.3,6.7.9,2.1.7,4.2,1.2,6.4,1.6.5,0,6.8-14.7,14.3-33.6,6.6-16.5,9.9-24.7,11.3-29.2,1.5-4.6,1.1-5.2.2-5.8-1.7-1.1-3.6-1.9-5.5-2.5-2-.6-8.4-1.3-14-1.5-.9,0-1.9,0-2.8,0-4,0-7.9.3-11.9,1-3.8.7-7.4,1.8-11,3.2-3.7,1.5-7.3,3.4-10.7,5.7-3.8,2.5-7.5,5.3-10.9,8.3-6.1,5.3-15.9,16.6-19.7,22.7-1.2,1.9-2.4,3.4-2.7,3.4,0,0,0,0,0,0-.3-.3,2.3-21.3,4.1-34l.5-3.7h-66.9l-.6,3.2c-.6,3.2-11.1,80.3-20.7,150.6-9.6,70.3-19.8,146.4-19.8,147.3,0,1.8,1.7,1.9,37.4,1.9h37.4s.6-3.8.6-3.8c.3-2.1,4-30.6,8.1-62.7,5.4-42,8.9-66.4,12-84s6.2-29.8,10.5-42c3.9-11,7-17.1,12.6-25.1,4.4-6.4,10.1-11.9,16.7-16.1Z"/>
    <path class="st0" d="M2372.1,473.7c.2-.4.9-2.7,2.3-6.4l.7-2.1c9-25.6,36.6-103.6,68.7-194.2,37.5-105.8,70-197.8,70.3-198.8,0-.2,0-.4,0-.6-.8-1-6.3-1.1-36.9-1.1h-37.5l-2.5,6.7c-.7,1.9-6.2,17.6-14.5,41.3l-.3,1h0c-7.8,22.3-18.6,52.8-29.9,84.8-20.5,57.8-42.5,119.5-43.1,119.5,0,0,0,0,0,0-.2-.3-12.3-63.4-24.1-125.6-11.4-60.3-23.8-125.7-23.8-126.9s-12.9-.7-29.3-.7h-29.4l-61.9,131.2c-33.6,71.3-61.5,129.3-62.2,129.3s0,0,0,0c0-.5-1.2-13.5-2.8-31.5-5.6-62.2-20.4-227.6-20.4-228.3s-15.6-.7-35.6-.7h-35.6l.6,5.2c.3,3,8.5,92.2,18.1,199.3,10.3,114.6,17.7,196.6,18,199.2l.6,5.3h67.5l63-133.5c31.3-66.5,63.1-133.5,63.4-133.5s10.6,52.8,22.4,115.2c15.7,82.8,23.7,125.2,25.4,133.5l3.5,18.3h63.5l2-5.8Z"/>
    <text/>
  </g>
  <text class="st1" transform="translate(1447.7 652.1)"><tspan x="0" y="0">C A L C U L A T O R</tspan></text>
</svg>