<?xml version="1.0" encoding="UTF-8"?>
<svg id="Layer_2" xmlns="http://www.w3.org/2000/svg" version="1.1" viewBox="0 0 965.6 669.8">
  <!-- Generator: Adobe Illustrator 29.2.1, SVG Export Plug-In . SVG Version: 2.1.0 Build 116)  -->
  <defs>
    <style>
      .st0 {
        fill: #111;
      }

      .st1 {
        fill: #d52927;
      }
    </style>
  </defs>
  <g id="Group_94">
    <path class="st0" d="M604.7,265.4c-17.5-18.1-37.3-38.2-42.1-42.2l-1.1-.9q-16.8-14.1-41.4-18.1l-1.1-.2c-21.3-3.4-42.4-6.3-62.6-8.6-20.3-2.2-40.6-3.9-60.3-5-10.1-.5-25.2-.8-41.7-.8s-32.7.3-41.8.9c-26,1.6-51.8,5-77.3,10.2-23.8,5-43.3,11.2-56.5,18-7.9,4-9.7,5.7-47.9,44.7l-39.7,40.5-33.1.5c-15.3.2-24.2.4-29.2.8-5,.4-6.5,1-9,2.1-3.2,1.5-6.2,3.6-8.7,6.1-4.2,4.6-7.6,13.5-7.6,19.8v4.7l16.9,16.9,17,16.9-2.4,1.9c-3.2,2.5-10.2,13.2-15.4,23.5l-4.1,8.3v92.7l14.8,6.1c27.7,11.6,56.1,21.2,85.1,29,28.6,7.5,57.8,12.9,87.1,16.3,7.1.9,17.5,1.6,30.1,2.1,11.8.5,25,.7,37,.7s23.5-.3,30.9-.8c16.8-1.3,33.5-3.3,49.7-6,16.2-2.7,32.2-6.1,47.7-10.2,15.5-4.1,30.9-8.9,45.8-14.4s29.6-11.7,43.7-18.6c19.4-9.4,30.9-15.8,45.3-25.2,9.9-6.4,10.8-7.3,11.3-10.6,1.6-10.7,4.1-19.6,7.7-27.1,2.3-4.8,5.3-9.2,8.8-13.2,3.6-4.1,7.7-7.6,12.2-10.7,4.7-3.2,9.7-5.7,15-7.7,5.5-2.1,11.3-3.5,17.2-4.3,3.8-.6,6.7-1.3,9.5-3.5,2.5-2,4.9-4.9,8.9-11,4.5-6.9,8.1-14.4,10.8-22.2,3-8.3,5.1-16.9,6.3-25.7.7-6.9,1-13.8,1-20.7,0-8.6-.2-15-.7-16.2-.7-1.7-19.2-21.3-36.1-38.8ZM189.2,467.8l-.6,2.6h-25.3c-14.7,0-23.2-.3-30.2-1.1-7.1-.8-14.1-2.4-20.9-4.6-6.2-1.9-12.2-4.5-17.8-7.8-4.9-2.9-9.3-6.5-13-10.7-3.5-3.9-6.2-8.4-8-13.2-1.8-5-2.8-10.2-2.7-15.5,0-4.9.8-7.9,2.6-10.1s4.8-3.7,10.1-5c3.5-.6,7.1-.8,10.6-.7,9.8,0,25.3.9,34.7,2.7,17.1,3.1,29.6,6.7,36.2,10.2,2.7,1.4,5.2,3.2,7.5,5.2,2.4,2.1,4.5,4.4,6.3,7,1.9,2.6,3.6,5.5,5,8.4,1.4,3.1,2.6,6.3,3.4,9.5,1,4.3,1.8,8.6,2.2,13,.5,4.7.5,8.5,0,10.1ZM137.5,346.4l1.2-2.3c.3-.6,2.8-5.2,6.4-11.6,4.1-7.4,9.8-17.6,15.8-28.6,17.6-31.7,22.1-39,26.4-43.2,5.7-5.6,14.6-10.4,23.3-12.7,4.7-1.3,27.5-1.5,162.9-1.5h157.3c0,0,5.9,3,5.9,3,3,1.7,5.9,3.7,8.5,5.9,3.2,2.8,6.2,5.8,9,9,6.9,7.9,13,16.4,18.4,25.5,6,10,18.4,35.4,23.3,47.7l3.5,8.8H137.5Z"/>
    <g id="CarWise_Final_Logo_Black_and_Red">
      <path id="Path_208189" class="st1" d="M402.7,3.5c-47.7,3-103.5,11.1-151.5,22-28,6.3-66.9,17.3-65.7,18.5.3.3,6.9-.6,14.8-2,73.9-13,150.6-16.1,220.4-9,81.8,8.3,163.8,32.3,226.9,66.5,32.8,17.9,52.5,32.7,80.9,60.7,41.6,41.1,64.9,80.5,73.9,125.3,3.3,16.4,3.3,47.3,0,63.6-10,49.9-36.9,95.6-81.8,139.3-18.5,17.9-21.9,20.5-41.9,32-33.5,19.1-78.1,40.1-113.5,53.3-116.4,43.6-237,53.8-353.5,30.1-62.1-12.7-124.9-35.9-171.3-63.4-5.7-3.4-10.6-6-10.8-5.7-.6.6,9.2,9.7,18.7,17.4,67.2,54.5,181.4,94.9,312.2,110.4,32,3.8,90.3,3.5,141.2-.6,140-11.5,259.5-53.3,342.1-119.7,14.7-11.8,30.9-27.1,38.9-36.8,3.3-4,9.6-11.6,14.1-16.9,28.1-33.8,47.7-70,56.9-105.3,5-19.6,6.7-32.5,6.7-52.8s-1.6-32.8-6.3-51.4c-14.1-56.3-55-114.4-110.3-156.8C751.9,51.7,640.5,12.4,507.4,3.4c-17.6-1.1-85.3-1.1-104.7,0Z"/>
      <path id="Path_208190" class="st1" d="M292.7,38c-31.6,1.9-72.7,6.1-80,8.3-2.5.8-2,.9,3.5,1,90.4,1.6,167.7,13.1,232.5,34.6,35.1,11.7,58.8,22.8,85,39.9,70.4,46.1,109.6,94.6,121.6,150.4,3,14,3.7,38.3,1.5,53-6.1,41-24.6,79.1-56.5,116.5-5.6,6.6-11.4,11.7-22.1,19.6-67,49.7-138,81.3-216.5,96.5-32.1,6.2-56.5,8.6-92.5,9.3-45.9.9-81.9-2.3-127.5-11.3-30.5-6-73.8-18.6-95.4-27.8-13.5-5.7-11.9-3.6,6.2,8.6,40.8,27.4,102.4,46.8,175.4,55.3,69.7,8.1,166.9,6.6,207.7-3.1,106.2-25.3,186-59.5,242.1-103.8,13.5-10.7,35.4-32.8,44.8-45.3,18.8-25.2,31.1-52.8,36.2-81.3,2.6-14.7,3.1-40.8,1.1-56.8-4.1-32-16.5-67.4-33.5-95.5-11-18.3-46.9-53.4-76.1-74.3-74.8-53.8-161.3-83.2-272-92.4-12.5-1.1-74.3-2.1-85.5-1.4Z"/>
    </g>
  </g>
</svg>