<svg xmlns="http://www.w3.org/2000/svg" width="3248" height="662.585" viewBox="0 0 3248 662.585">
  <g id="Group_94" data-name="Group 94" transform="translate(7220 11207.793)">
    <path id="Subtraction_2" data-name="Subtraction 2" d="M2434.234,803.955A81.125,81.125,0,0,1,2417.2,802.5a47.226,47.226,0,0,1-21.7-11.225,46.206,46.206,0,0,1-12.7-20.675c-2.579-8.431-3.008-23.969-.9-32.6a50.6,50.6,0,0,1,13.087-23.275,52.429,52.429,0,0,1,10.664-8.309A55.459,55.459,0,0,1,2418.5,700.9c3.921-1.135,11.439-1.84,19.619-1.84,6.752,0,12.649.488,16.182,1.339,4.159.978,6.2,1.51,7.031,2.9.921,1.535.319,4.021-1.131,9.5a92.6,92.6,0,0,1-2.7,9,.306.306,0,0,1-.194.039,34.76,34.76,0,0,1-5.406-1.238,45.535,45.535,0,0,0-12.848-1.638A44.717,44.717,0,0,0,2424.4,721.1a28.06,28.06,0,0,0-7.911,4.525,26.4,26.4,0,0,0-5.8,6.7c-3.177,5.214-4.788,11.665-4.788,19.175a45.158,45.158,0,0,0,.884,9.566,31.058,31.058,0,0,0,2.816,8.009,26.285,26.285,0,0,0,4.766,6.472,29.548,29.548,0,0,0,6.734,4.953c4.611,2.506,6.779,3,14.5,3.3,1.254.062,2.528.094,3.788.094,6.648,0,12.739-.873,16.712-2.394a1.348,1.348,0,0,1,.454-.09c1.086,0,1.633,1.935,2.946,8.591,1.27,6.776,1.453,9.445.7,10.2-1.078,1.078-4.458,2.053-9.517,2.743A126.233,126.233,0,0,1,2434.234,803.955Zm-1001.413-.041a36.779,36.779,0,0,1-12.72-1.814,31.812,31.812,0,0,1-14.912-9.5,41.428,41.428,0,0,1-8.687-17.3c-1.192-4.467-1.5-12.795-1.5-40.5V700h24v33.3c0,18.512.133,28.417.887,34.637.757,6.242,2.123,8.669,4.713,11.462a16.961,16.961,0,0,0,12.408,5.487,16.5,16.5,0,0,0,8.551-2.39,17.459,17.459,0,0,0,6.44-7l2.5-4.9.3-35.3.3-35.3H1479v34c0,21.3-.411,35.953-1.1,39.2-2.692,12.761-9.657,21.879-20.7,27.1-6.043,2.872-7.762,3.2-18.4,3.5C1436.212,803.879,1434.367,803.914,1432.82,803.914Zm1497.988-.028h0c-1.358,0-2.807-.029-4.307-.086-9.813-.4-11.809-.8-17.8-3.6a44.3,44.3,0,0,1-13.783-10.032,49.579,49.579,0,0,1-9.33-14.505,57.911,57.911,0,0,1-4.323-17.636A66.134,66.134,0,0,1,2882.5,738.6a56.454,56.454,0,0,1,4.386-12.908,50.525,50.525,0,0,1,7.077-10.855,46.734,46.734,0,0,1,9.42-8.4A45.645,45.645,0,0,1,2914.8,700.9a58.136,58.136,0,0,1,16.2-1.953c6.9,0,13.354.821,17.7,2.253,12.79,4.2,23.105,14.512,28.3,28.3,1.8,4.694,2.4,8.67,2.8,18.5.358,10.145-.5,17.961-2.713,24.6a44.9,44.9,0,0,1-11.487,18,43.324,43.324,0,0,1-15.138,10.226C2945.032,802.914,2938.786,803.886,2930.808,803.886Zm-.139-85.83a19.113,19.113,0,0,0-8.169,1.844,24.042,24.042,0,0,0-10.437,9.525A37.432,37.432,0,0,0,2907.1,745.1c-1.5,14.507,1.889,26.79,9.3,33.7a24.244,24.244,0,0,0,7.129,4.637,19.858,19.858,0,0,0,7.64,1.558,19.362,19.362,0,0,0,11.13-3.595,25.424,25.424,0,0,0,7.31-8.4,40.476,40.476,0,0,0,4.29-11.742,49.856,49.856,0,0,0,.916-13.373A45.962,45.962,0,0,0,2952,734.6a27.218,27.218,0,0,0-8.8-12.141A20.616,20.616,0,0,0,2930.669,718.056Zm-923.861,85.83h0c-1.358,0-2.807-.029-4.307-.086-9.813-.4-11.809-.8-17.8-3.6a44.3,44.3,0,0,1-13.783-10.032,49.559,49.559,0,0,1-9.329-14.505,57.907,57.907,0,0,1-4.324-17.636A66.138,66.138,0,0,1,1958.5,738.6a56.448,56.448,0,0,1,4.386-12.908,50.525,50.525,0,0,1,7.077-10.855,46.731,46.731,0,0,1,9.42-8.4A45.646,45.646,0,0,1,1990.8,700.9a58.138,58.138,0,0,1,16.2-1.953c6.9,0,13.355.821,17.7,2.253,12.789,4.2,23.1,14.512,28.3,28.3,1.8,4.693,2.4,8.669,2.8,18.5.358,10.145-.5,17.961-2.713,24.6a44.906,44.906,0,0,1-11.488,18,43.332,43.332,0,0,1-15.137,10.226C2021.032,802.914,2014.786,803.886,2006.808,803.886Zm-.139-85.83a19.113,19.113,0,0,0-8.169,1.844,24.047,24.047,0,0,0-10.438,9.525A37.432,37.432,0,0,0,1983.1,745.1c-1.5,14.508,1.89,26.79,9.3,33.7a24.24,24.24,0,0,0,7.13,4.637,19.86,19.86,0,0,0,7.639,1.558A19.363,19.363,0,0,0,2018.3,781.4a25.411,25.411,0,0,0,7.309-8.4,40.484,40.484,0,0,0,4.291-11.742,49.884,49.884,0,0,0,.915-13.373A45.966,45.966,0,0,0,2028,734.6a27.21,27.21,0,0,0-8.8-12.141A20.616,20.616,0,0,0,2006.669,718.056Zm-675.861,85.83h0c-1.358,0-2.807-.029-4.307-.086-9.812-.4-11.809-.8-17.8-3.6a44.29,44.29,0,0,1-13.782-10.032,49.561,49.561,0,0,1-9.33-14.505,57.9,57.9,0,0,1-4.323-17.636A66.122,66.122,0,0,1,1282.5,738.6a56.44,56.44,0,0,1,4.386-12.908,50.553,50.553,0,0,1,7.076-10.855,46.739,46.739,0,0,1,9.421-8.4A45.638,45.638,0,0,1,1314.8,700.9a58.138,58.138,0,0,1,16.2-1.953c6.9,0,13.355.821,17.7,2.253,12.79,4.2,23.1,14.512,28.3,28.3,1.8,4.694,2.4,8.67,2.8,18.5.358,10.145-.5,17.961-2.713,24.6a44.905,44.905,0,0,1-11.487,18,43.332,43.332,0,0,1-15.137,10.226C1345.032,802.914,1338.786,803.886,1330.808,803.886Zm-.14-85.83a19.112,19.112,0,0,0-8.169,1.844,24.043,24.043,0,0,0-10.437,9.525A37.44,37.44,0,0,0,1307.1,745.1c-1.5,14.508,1.89,26.791,9.3,33.7a24.249,24.249,0,0,0,7.13,4.637,19.857,19.857,0,0,0,7.639,1.558,19.362,19.362,0,0,0,11.13-3.595,25.421,25.421,0,0,0,7.31-8.4,40.473,40.473,0,0,0,4.291-11.742,49.865,49.865,0,0,0,.916-13.373A45.958,45.958,0,0,0,1352,734.6a27.212,27.212,0,0,0-8.8-12.141A20.616,20.616,0,0,0,1330.669,718.056ZM3369.5,803.5c-12.956,0-16.068-.322-22.2-2.3-3.957-1.187-7.3-2.79-7.3-3.5,0-.665.925-5.08,2.2-10.5,1.636-6.818,2.366-8.684,3.4-8.684a1.123,1.123,0,0,1,.4.084,73.025,73.025,0,0,0,12.962,4.088,59.466,59.466,0,0,0,12.272,1.417,33.592,33.592,0,0,0,6.065-.5c4.959-.893,8.7-4.977,8.7-9.5a8.759,8.759,0,0,0-3.824-7.487c-2.667-2.089-7.085-4.216-14.775-7.112a57.426,57.426,0,0,1-14.738-7.8,32.08,32.08,0,0,1-8.963-10.2c-1.577-2.915-2.429-7.39-2.337-12.275A29.2,29.2,0,0,1,3344.2,716.5a29.5,29.5,0,0,1,7.688-9.563A36.774,36.774,0,0,1,3363.7,700.9c3.365-1.107,9.385-1.742,16.518-1.742,8.568,0,16.647.9,21.083,2.342,3.036.98,5.7,2.383,5.7,3a87.2,87.2,0,0,1-2.425,9.387,75.616,75.616,0,0,1-2.874,8.713.5.5,0,0,1-.323.069A28.434,28.434,0,0,1,3395.1,721a45.009,45.009,0,0,0-13.711-2.1c-5.036,0-9.223.876-11.489,2.4-2.461,1.576-3.5,3.09-3.7,5.4-.278,2.874.142,5.125,3.088,7.462s8.4,4.738,16.213,7.838c9.685,3.9,14.171,6.769,19.2,12.3a24.221,24.221,0,0,1,4.912,8.262A33.376,33.376,0,0,1,3411,773.3a28.492,28.492,0,0,1-1.378,8.874,27.013,27.013,0,0,1-4.021,7.739,31.081,31.081,0,0,1-6.5,6.408,40.739,40.739,0,0,1-8.8,4.88C3384.988,803.242,3382.655,803.5,3369.5,803.5Zm-645,0c-12.955,0-16.067-.322-22.2-2.3-3.957-1.187-7.3-2.79-7.3-3.5,0-.67.926-5.085,2.2-10.5,1.636-6.818,2.366-8.684,3.4-8.684a1.112,1.112,0,0,1,.4.084,73.035,73.035,0,0,0,12.963,4.088,59.459,59.459,0,0,0,12.272,1.417,33.588,33.588,0,0,0,6.064-.5c4.959-.893,8.7-4.977,8.7-9.5a8.759,8.759,0,0,0-3.824-7.487c-2.667-2.089-7.085-4.216-14.775-7.112a57.44,57.44,0,0,1-14.737-7.8,32.084,32.084,0,0,1-8.963-10.2c-1.577-2.915-2.429-7.39-2.337-12.275a27.889,27.889,0,0,1,10.525-22.288A36.768,36.768,0,0,1,2718.7,700.9c3.365-1.107,9.385-1.742,16.517-1.742,8.568,0,16.646.9,21.083,2.342,3.037.98,5.7,2.383,5.7,3a87.264,87.264,0,0,1-2.425,9.387,75.549,75.549,0,0,1-2.875,8.713.5.5,0,0,1-.322.069A28.43,28.43,0,0,1,2750.1,721a45.011,45.011,0,0,0-13.711-2.1c-5.036,0-9.223.876-11.489,2.4-2.462,1.575-3.5,3.09-3.7,5.4-.278,2.873.142,5.124,3.088,7.462s8.4,4.738,16.213,7.838c9.686,3.9,14.172,6.769,19.2,12.3a24.213,24.213,0,0,1,4.913,8.262A33.372,33.372,0,0,1,2766,773.3a28.492,28.492,0,0,1-1.378,8.874,27.028,27.028,0,0,1-4.021,7.739,31.1,31.1,0,0,1-6.5,6.408,40.739,40.739,0,0,1-8.8,4.88C2739.988,803.242,2737.656,803.5,2724.5,803.5Zm-819,0c-12.955,0-16.068-.322-22.2-2.3-3.958-1.187-7.3-2.79-7.3-3.5,0-.664.925-5.079,2.2-10.5,1.636-6.818,2.366-8.684,3.4-8.684a1.112,1.112,0,0,1,.4.084,73.02,73.02,0,0,0,12.963,4.088,59.466,59.466,0,0,0,12.273,1.417,33.589,33.589,0,0,0,6.065-.5c4.96-.893,8.7-4.977,8.7-9.5a8.758,8.758,0,0,0-3.825-7.487c-2.667-2.089-7.086-4.216-14.775-7.112a57.436,57.436,0,0,1-14.737-7.8,32.077,32.077,0,0,1-8.963-10.2c-1.578-2.916-2.43-7.39-2.338-12.275A29.2,29.2,0,0,1,1880.2,716.5a29.5,29.5,0,0,1,7.688-9.563A36.78,36.78,0,0,1,1899.7,700.9c3.365-1.107,9.385-1.742,16.517-1.742,8.568,0,16.647.9,21.083,2.342,3.036.98,5.7,2.383,5.7,3a87.233,87.233,0,0,1-2.425,9.387,75.508,75.508,0,0,1-2.875,8.713.5.5,0,0,1-.322.069A28.418,28.418,0,0,1,1931.1,721a45.011,45.011,0,0,0-13.711-2.1c-5.036,0-9.223.876-11.489,2.4-2.462,1.576-3.5,3.09-3.7,5.4-.278,2.874.141,5.124,3.087,7.462s8.4,4.738,16.213,7.838c9.686,3.9,14.172,6.769,19.2,12.3a24.207,24.207,0,0,1,4.912,8.262A33.368,33.368,0,0,1,1947,773.3a28.488,28.488,0,0,1-1.378,8.874,27.02,27.02,0,0,1-4.021,7.739,31.1,31.1,0,0,1-6.5,6.408,40.738,40.738,0,0,1-8.8,4.88C1920.987,803.242,1918.655,803.5,1905.5,803.5Zm251.5-.4h0l-12.7-.3-12.6-.3L2120.8,783c-5.893-10.511-14.55-26.705-19.3-36.1l-8.3-16.6.6,36.3.5,36.4H2072V700h27.8l11.7,20.6c6.616,11.6,15,27.214,18.7,34.8,3.272,6.631,6.047,11.825,6.317,11.825a.015.015,0,0,0,.013-.007c.016-.02.006-.094-.03-.218-.323-1.5-.835-18.561-1.2-34.8l-.6-32.2H2157V803.1Zm1119-.1h-23V700.1l4.8-.4c2.044-.157,9.9-.326,19.032-.326,2.107,0,4.182.009,6.168.026,9.8.1,14.762.206,18.274.538a26.942,26.942,0,0,1,8.225,1.962c7.344,2.918,14.5,9.814,16.3,15.7a55.121,55.121,0,0,1,1.2,11.2c0,5.71-.5,7.894-2.8,12.3a31.5,31.5,0,0,1-5.749,7.4c-2.47,2.418-4.895,4.13-6.65,4.7a.446.446,0,0,0-.315.341c-.1.546.725,1.6,2.314,2.96,2.522,2.1,4.373,4.737,6.188,8.812s3.641,9.689,6.112,18.787c2.175,8.4,4.29,16.167,4.6,17.1a1.1,1.1,0,0,1-.03.976c-.587.785-3.535.824-11.971.824h-12.6l-1.9-6.3c-1.037-3.206-2.7-9.635-4.2-15.5-1.618-6.747-3.167-11.507-5.887-14.387-2.7-2.861-6.524-3.81-11.813-4.413l-6.3-.7V803Zm0-86v28.3l7.9-.5c6.412-.348,11.3-1.8,14.525-4.313s4.824-6.1,4.774-10.687a12.96,12.96,0,0,0-1.223-5.628,10.335,10.335,0,0,0-3.539-4,17.167,17.167,0,0,0-5.883-2.384,38.264,38.264,0,0,0-8.255-.79Zm-410,86h-24V760h-37v43h-24V700h24v39h37V700h24V803Zm-266,0h-23V700.1l4.8-.4c2.044-.157,9.9-.326,19.032-.326,2.107,0,4.182.009,6.168.026,9.8.1,14.762.206,18.274.538a26.942,26.942,0,0,1,8.225,1.962c7.343,2.918,14.5,9.813,16.3,15.7a55.116,55.116,0,0,1,1.2,11.2c0,5.711-.5,7.895-2.8,12.3a31.5,31.5,0,0,1-5.749,7.4c-2.47,2.418-4.895,4.13-6.65,4.7a.444.444,0,0,0-.315.341c-.1.547.725,1.6,2.314,2.96,2.521,2.1,4.372,4.736,6.188,8.812s3.639,9.685,6.113,18.787c2.181,8.43,4.295,16.185,4.6,17.1a1.1,1.1,0,0,1-.03.976c-.587.785-3.535.824-11.971.824h-12.6l-1.9-6.3c-1.03-3.184-2.627-9.332-4.2-15.5-1.617-6.747-3.166-11.507-5.887-14.387-2.7-2.861-6.524-3.81-11.812-4.413l-6.3-.7V803Zm0-86v28.3l7.9-.5c6.412-.348,11.3-1.8,14.525-4.313s4.824-6.1,4.774-10.687a12.96,12.96,0,0,0-1.223-5.628,10.335,10.335,0,0,0-3.539-4,17.167,17.167,0,0,0-5.883-2.384,38.264,38.264,0,0,0-8.255-.79Zm-787,86h-23V700.1l4.8-.4c2.044-.157,9.9-.326,19.032-.326,2.108,0,4.182.009,6.168.026,9.8.1,14.762.206,18.275.538a26.942,26.942,0,0,1,8.225,1.962c7.344,2.918,14.5,9.814,16.3,15.7a55.179,55.179,0,0,1,1.2,11.2c0,5.711-.5,7.895-2.8,12.3a31.486,31.486,0,0,1-5.75,7.4c-2.471,2.418-4.895,4.131-6.65,4.7a.444.444,0,0,0-.315.341c-.1.546.725,1.6,2.314,2.96,2.522,2.1,4.373,4.736,6.188,8.812s3.64,9.685,6.112,18.787c2.182,8.427,4.295,16.183,4.6,17.1a1.1,1.1,0,0,1-.029.976c-.587.785-3.535.824-11.971.824h-12.6l-1.9-6.3c-1.028-3.177-2.626-9.327-4.2-15.5-1.618-6.747-3.167-11.507-5.887-14.387-2.7-2.861-6.524-3.81-11.813-4.413l-6.3-.7V803Zm0-86v28.3l7.9-.5c6.412-.348,11.3-1.8,14.525-4.313s4.825-6.1,4.775-10.687a12.966,12.966,0,0,0-1.224-5.628,10.336,10.336,0,0,0-3.539-4,17.165,17.165,0,0,0-5.883-2.384,38.253,38.253,0,0,0-8.254-.79Zm-291,86h-23V700.1l4.8-.4c2.044-.157,9.9-.326,19.032-.326,2.108,0,4.182.009,6.168.026,9.8.1,14.762.206,18.275.538a26.932,26.932,0,0,1,8.225,1.962c7.344,2.918,14.5,9.814,16.3,15.7a55.1,55.1,0,0,1,1.2,11.2c0,5.71-.5,7.893-2.8,12.3a31.493,31.493,0,0,1-5.75,7.4c-2.471,2.418-4.9,4.13-6.65,4.7a.443.443,0,0,0-.314.341c-.1.547.725,1.6,2.314,2.96,2.522,2.1,4.372,4.737,6.188,8.812s3.64,9.685,6.113,18.787c2.175,8.408,4.29,16.17,4.6,17.1a1.1,1.1,0,0,1-.03.976c-.587.785-3.534.824-11.97.824h-12.6l-1.9-6.3c-1.037-3.206-2.7-9.635-4.2-15.5-1.617-6.747-3.167-11.507-5.888-14.387-2.7-2.861-6.524-3.81-11.812-4.413l-6.3-.7V803Zm0-86v28.3l7.9-.5c6.412-.348,11.3-1.8,14.525-4.313s4.825-6.1,4.775-10.687a12.962,12.962,0,0,0-1.223-5.628,10.329,10.329,0,0,0-3.539-4,17.169,17.169,0,0,0-5.883-2.384,38.263,38.263,0,0,0-8.255-.79Zm1716,86h-66V700h64v20h-40v21h37v19h-37v23h42v20Zm-132,0h-23V700.1l4.3-.4c3.787-.341,10.677-.536,18.905-.536,10.14,0,21.982.322,24.995.937,10.636,2.307,18.624,7.944,23.1,16.3a14.347,14.347,0,0,1,1.812,5.362A81.348,81.348,0,0,1,3156.5,732c0,10.556-.227,11.952-2.7,16.6a31.144,31.144,0,0,1-14.625,13.737c-6.539,3.094-14.74,4.663-24.375,4.663H3106v36Zm7.745-86.015a23.747,23.747,0,0,0-5.945.715c-.8.2-1.249.691-1.5,2.825-.253,2.154-.3,5.925-.3,12.575V748l3.8.1c.625.016,1.233.025,1.807.025,10,0,16.16-2.391,19.393-7.525a17.658,17.658,0,0,0,2.075-8.888c-.027-3.422-.856-6.415-2.275-8.212a16.281,16.281,0,0,0-7.16-4.756A28.957,28.957,0,0,0,3113.745,716.985ZM3018,803h-23V700.1l4.3-.4c3.787-.341,10.678-.536,18.9-.536,10.14,0,21.982.322,24.994.937,10.636,2.307,18.624,7.944,23.1,16.3a14.358,14.358,0,0,1,1.813,5.362A81.4,81.4,0,0,1,3068.5,732c0,10.555-.227,11.951-2.7,16.6a31.145,31.145,0,0,1-14.625,13.737c-6.539,3.094-14.74,4.663-24.375,4.663H3018v36Zm7.745-86.015a23.743,23.743,0,0,0-5.945.715c-.8.2-1.249.691-1.5,2.825-.253,2.154-.3,5.925-.3,12.575V748l3.8.1c.625.016,1.233.025,1.807.025,10,0,16.16-2.391,19.392-7.525a17.66,17.66,0,0,0,2.075-8.888c-.027-3.422-.856-6.415-2.275-8.212a16.281,16.281,0,0,0-7.16-4.756A28.957,28.957,0,0,0,3025.745,716.985ZM2551.2,803h-12.9l-3.8-13-3.8-13h-14.3c-12.637,0-14.3.191-14.8,1.7-.3,1.009-1.694,6.079-3.1,11.3-1.321,4.908-2.792,10.275-3.1,11.2-.5,1.6-1.958,1.8-13,1.8-7.1,0-12.4-.317-12.4-.6,0-.6,19.346-64.524,27.6-91.2l3.5-11.2H2517c6.874,0,11.035.046,13.337.288,2.27.238,2.813.662,3.063,1.412.087.29.736,2.4,1.875,6.1l.061.2c2.735,8.893,7.827,25.447,13.564,44.2,8.186,26.333,15.1,49.092,15.1,49.7C2564,802.62,2559.574,803,2551.2,803Zm-35.167-81.838c-.52,0-.993,1.257-1.333,3.537-.41,2.158-2.562,10.63-4.7,18.5-2.216,8.056-4,14.9-4,15.2,0,.313,5.052.6,10.6.6,6.974,0,9.413-.037,9.951-.76.232-.312.125-.752-.052-1.339-2.259-7.075-8.49-29.245-9-32.3C2517.066,722.383,2516.545,721.162,2516.033,721.162ZM2342,803h-65V700h24v83h41v20Zm-91.8,0h-12.9l-3.8-13-3.8-13h-14.3c-12.637,0-14.3.191-14.8,1.7-.307,1.025-1.727,6.2-3.1,11.3-1.226,4.552-2.773,10.216-3.1,11.2-.5,1.6-1.957,1.8-13,1.8-7.1,0-12.4-.317-12.4-.6,0-.6,19.346-64.524,27.6-91.2l3.5-11.2H2216c6.875,0,11.036.046,13.338.288,2.271.238,2.813.662,3.063,1.412.091.3.8,2.62,1.983,6.455l0,.011c2.506,8.149,7.721,25.1,13.513,44.033,8.185,26.328,15.1,49.088,15.1,49.7C2263,802.62,2258.574,803,2250.2,803Zm-35.167-81.838c-.52,0-.993,1.257-1.333,3.537-.415,2.177-2.568,10.649-4.7,18.5-2.215,8.057-4,14.9-4,15.2,0,.313,5.052.6,10.6.6,6.973,0,9.413-.037,9.951-.76.232-.312.125-.752-.051-1.339-2.261-7.078-8.492-29.247-9-32.3C2216.067,722.383,2215.546,721.162,2215.033,721.162ZM1775,803h-66V700h64v20h-40v21h37v19h-37v23h42v20Zm-132,0h-23V700.1l4.3-.4c3.787-.341,10.678-.536,18.905-.536,10.14,0,21.981.322,24.995.937,10.635,2.307,18.623,7.944,23.1,16.3a14.361,14.361,0,0,1,1.813,5.362A81.32,81.32,0,0,1,1693.5,732c0,10.554-.227,11.95-2.7,16.6a31.144,31.144,0,0,1-14.625,13.737c-6.539,3.094-14.74,4.663-24.375,4.663H1643v36Zm7.745-86.015a23.748,23.748,0,0,0-5.945.715c-.8.2-1.249.691-1.5,2.825-.253,2.154-.3,5.925-.3,12.575V748l3.8.1c.625.016,1.233.025,1.807.025,10,0,16.159-2.391,19.392-7.525a17.659,17.659,0,0,0,2.075-8.888c-.027-3.422-.856-6.415-2.275-8.212a16.277,16.277,0,0,0-7.16-4.756A28.952,28.952,0,0,0,1650.745,716.985ZM1248,803h-24V760.7l-16-29.9c-9.158-17.17-16-30.211-16-30.4s5.9-.4,13.8-.4h13.8l6.6,15.7c3.73,8.769,7.723,18.459,8.9,21.6l2.2,5.8,4.8-11.8c2.68-6.7,6.529-16.169,8.7-21.3l4-9.5,13.7-.3c2.525-.047,4.527-.069,6.122-.069,4.732,0,6.71.2,7.057.711a.36.36,0,0,1,.022.358c-.321.749-8.82,15.959-17.1,30.7L1248,761.4V803ZM429.079,706.937c-12.041,0-25.179-.265-36.994-.746-12.625-.514-23.028-1.237-30.085-2.091a635.328,635.328,0,0,1-87.15-16.35A661.838,661.838,0,0,1,189.8,658.8L175,652.7V560l4.1-8.3c5.185-10.266,12.237-21.028,15.4-23.5l2.4-1.9-17-16.9L163,492.5v-4.7c0-6.328,3.41-15.21,7.6-19.8a31,31,0,0,1,8.7-6.1c2.468-1.135,3.988-1.745,8.975-2.125,5.01-.382,13.915-.536,29.225-.775l33.1-.5L290.3,418c38.247-39.048,40.038-40.719,47.9-44.7,13.247-6.771,32.8-13,56.55-18A546.428,546.428,0,0,1,472,345.1c9.14-.58,24.393-.912,41.845-.912,16.422,0,31.6.3,41.655.813,19.718,1.093,40.014,2.788,60.325,5.038,20.221,2.24,41.275,5.12,62.575,8.562l1.056.173c24.6,4.036,24.6,4.036,41.448,18.111l1.1.916c4.78,4.009,24.571,24.1,42.063,42.225,16.895,17.509,35.409,37.111,36.137,38.775.5,1.232.781,7.605.712,16.238A195.937,195.937,0,0,1,799.9,495.7a128.091,128.091,0,0,1-6.263,25.712A102.992,102.992,0,0,1,782.8,543.6c-4.027,6.04-6.45,9.012-8.938,10.963-2.8,2.193-5.694,2.979-9.463,3.537a79.363,79.363,0,0,0-17.158,4.33,72.65,72.65,0,0,0-15.03,7.733,64.625,64.625,0,0,0-12.236,10.677A57.113,57.113,0,0,0,711.2,594c-3.565,7.526-6.084,16.391-7.7,27.1-.5,3.274-1.447,4.166-11.3,10.6-14.437,9.429-25.868,15.788-45.3,25.2-14.159,6.868-28.867,13.131-43.715,18.614s-30.25,10.338-45.759,14.423c-15.526,4.09-31.591,7.524-47.747,10.2-16.178,2.685-32.892,4.69-49.678,5.958C452.589,706.648,441.9,706.937,429.079,706.937ZM253.334,556.316A54.438,54.438,0,0,0,242.7,557c-5.259,1.367-8.28,2.874-10.1,5.038S230,567.212,230,572.1a43.71,43.71,0,0,0,2.745,15.489,42.951,42.951,0,0,0,8.042,13.248,55.156,55.156,0,0,0,13.048,10.68A81.5,81.5,0,0,0,271.6,619.3a102.587,102.587,0,0,0,20.9,4.612c7.007.782,15.474,1.087,30.2,1.087H348l.6-2.6c.421-1.591.4-5.362-.05-10.088A89.588,89.588,0,0,0,346.4,599.3a53.821,53.821,0,0,0-3.413-9.527A50.2,50.2,0,0,0,338,581.362a44.605,44.605,0,0,0-6.337-6.967,38.326,38.326,0,0,0-7.462-5.2c-6.578-3.535-19.1-7.061-36.2-10.2C278.633,557.257,263.148,556.316,253.334,556.316ZM690.2,401l-157.3.1c-135.4,0-158.239.21-162.9,1.5-8.716,2.278-17.644,7.145-23.3,12.7-4.342,4.243-8.783,11.51-26.4,43.2-6.066,11.025-11.7,21.2-15.819,28.627-3.538,6.385-6.094,11-6.381,11.573l-1.2,2.3H758.8l-3.5-8.8c-4.894-12.333-17.306-37.743-23.3-47.7a176.177,176.177,0,0,0-18.4-25.45,94.637,94.637,0,0,0-9.05-9,48.039,48.039,0,0,0-8.45-5.947Zm690.253,246.412c-15.226,0-27.545-.453-32.954-1.213-7.869-1.11-15.532-2.508-22.776-4.156-7.28-1.656-14.365-3.616-21.057-5.825a198.456,198.456,0,0,1-19.419-7.541,178.517,178.517,0,0,1-17.861-9.3,168.987,168.987,0,0,1-31.374-24.081,183.018,183.018,0,0,1-13.674-14.872,206.039,206.039,0,0,1-46.9-123.172,211.959,211.959,0,0,1,5.423-56.213A224.01,224.01,0,0,1,1200.5,346.4a244.71,244.71,0,0,1,34.633-49.169,236.9,236.9,0,0,1,97.54-64.4A250.8,250.8,0,0,1,1392,220c3.838-.364,10.152-.564,17.78-.564,14.036,0,29.269.658,36.22,1.565a224.324,224.324,0,0,1,65.187,18.837A227.926,227.926,0,0,1,1568.2,277.5c2.39,2.206,4.8,4.67,4.8,5.2,0,.7-32.535,31.223-51,48l-4.6,4.1-7.6-7.2a127.124,127.124,0,0,0-32.338-22.288A141.316,141.316,0,0,0,1438.6,293.3a134.577,134.577,0,0,0-20.107-1.313c-12.952,0-26.407,1.276-35.993,3.413a178.542,178.542,0,0,0-41.145,14.894,171.457,171.457,0,0,0-35.192,23.781,161.994,161.994,0,0,0-27.6,31.243A152.68,152.68,0,0,0,1260.2,402.6a144.938,144.938,0,0,0-2.6,80.7,112.822,112.822,0,0,0,11.66,27.8,126.287,126.287,0,0,0,18.616,24.392,131.69,131.69,0,0,0,24.2,19.574A127.073,127.073,0,0,0,1340.5,568.4a145.875,145.875,0,0,0,23.525,5.447,170.483,170.483,0,0,0,24.848,1.789c35.426,0,71.119-10.4,97.927-28.536,9.454-6.359,12.335-8.208,13.21-8.208a.383.383,0,0,1,.29.108c1.677,1.981,13.135,17.139,23.588,31.088C1534.4,584.112,1545,598.4,1545,598.7c0,.744-4.866,4.116-12.7,8.8-7.866,4.7-16.986,9.685-23.8,13-24.641,12.172-50.22,19.989-80.5,24.6-12.523,1.934-19.355,2.3-43,2.3C1383.439,647.408,1381.909,647.412,1380.454,647.412Zm1830.595-1.762c-5.475,0-11.042-.219-16.548-.65a198.176,198.176,0,0,1-29.4-4.383,149.67,149.67,0,0,1-25.789-8.4,126.981,126.981,0,0,1-22.4-12.511A125.478,125.478,0,0,1,3097.7,603a129,129,0,0,1-11.385-13.858,123.565,123.565,0,0,1-9.19-15.18A133.577,133.577,0,0,1,3070,557.227a161.254,161.254,0,0,1-5.2-18.526c-2.051-9.333-2.3-13.393-2.2-36.2,0-14.3.227-23.639,1.425-32.024S3067.4,454.6,3071,443.7a164.876,164.876,0,0,1,18.422-37.812A180.729,180.729,0,0,1,3116.6,373.4a174.95,174.95,0,0,1,33.628-24.987A150.212,150.212,0,0,1,3188,333.1a156.455,156.455,0,0,1,18.4-3.706,142.744,142.744,0,0,1,18.969-1.025c2.91,0,6.223.043,10.127.131,16.593.3,23.192.819,30.7,2.4,23.778,5.124,44.545,15.087,61.725,29.612S3358.439,393.9,3367.6,416.6a147.464,147.464,0,0,1,6.261,19.422,173.157,173.157,0,0,1,3.851,20.9,178.573,178.573,0,0,1,1.321,21.465,162.564,162.564,0,0,1-1.333,21.11l-1.2,9-120.4.3-120.3.2.6,5.8a80.594,80.594,0,0,0,3.961,17.227,69.248,69.248,0,0,0,7.327,14.911,61.308,61.308,0,0,0,10.383,12.117A57.851,57.851,0,0,0,3171.2,567.9c12.176,5.988,18.114,7.3,35.3,7.8,3.2.112,5.9.167,8.265.167A82.351,82.351,0,0,0,3230.4,574.6a115.45,115.45,0,0,0,36.24-13.95,100.017,100.017,0,0,0,10.46-7.15c3.122-2.439,6.191-4.5,6.7-4.5.877,0,17.844,8.663,33.237,16.712S3349,582.637,3349,583.1c0,.79-2.73,4.249-7.125,9.025A162.132,162.132,0,0,1,3329.2,604.6a160.423,160.423,0,0,1-25.262,17.62,174.739,174.739,0,0,1-28.617,12.865,189.837,189.837,0,0,1-31.215,7.885,203.777,203.777,0,0,1-33.055,2.679h0Zm14.494-247.182a72.8,72.8,0,0,0-9.442.532,85.532,85.532,0,0,0-27.775,8.863A88.474,88.474,0,0,0,3164.9,425.8c-6.379,6.877-15.374,19.933-17.5,25.4a.473.473,0,0,0,.026.465c.886,1.253,10.435,1.335,76.474,1.335,60.528,0,77.1-.28,77.1-1.3,0-2.5-6.7-16.4-10.7-22.2a69.6,69.6,0,0,0-17.8-17.775A71.976,71.976,0,0,0,3249.6,401C3243.584,399.462,3234.14,398.468,3225.542,398.468ZM2899.558,645.627h0A157.65,157.65,0,0,1,2874,643.5a106.762,106.762,0,0,1-18.916-4.917,114.382,114.382,0,0,1-18.334-8.545c-11.983-6.878-24.266-16.507-37.551-29.438l-12.5-12.2,22.8-26.4c12.565-14.677,23.2-26.7,23.7-26.8a.352.352,0,0,1,.133-.023c.573,0,1.752,1.037,2.866,2.523,1.176,1.47,5.348,6.046,9.3,10.2a119.054,119.054,0,0,0,13.385,12.126,82.245,82.245,0,0,0,13.6,8.547,65.661,65.661,0,0,0,14.022,5.061,64.4,64.4,0,0,0,14.657,1.666h.339c14.669-.1,24.187-4.973,29.1-14.9a19.278,19.278,0,0,0,2.217-9.064,18.64,18.64,0,0,0-2.93-9.149c-3.667-6.119-11.034-13.147-23.887-22.788-5.15-3.862-16.334-12.13-25.5-18.9-16.456-12.265-28.034-22.875-36.437-33.387A89.067,89.067,0,0,1,2826.9,433.5a84.869,84.869,0,0,1-2.175-20.425A86.77,86.77,0,0,1,2826.9,392.5a75.567,75.567,0,0,1,7.8-18.878,82.79,82.79,0,0,1,12.653-16.5,93.807,93.807,0,0,1,16.928-13.534A106.909,106.909,0,0,1,2884.9,333.6a82.309,82.309,0,0,1,15.206-4.117,107.237,107.237,0,0,1,17.535-1.16c1.93,0,4.01.025,6.359.076,13.772.3,17.9.774,26,3a127.056,127.056,0,0,1,18,6.8,120.149,120.149,0,0,1,17.1,9.5,107.675,107.675,0,0,1,13.8,11.35,111.5,111.5,0,0,1,12,13.15l4.3,5.8-17.8,28.5c-9.484,15.348-17.99,28.5-18.3,28.5s-2.408-2.61-4.6-5.7c-5.7-7.994-18.211-20.207-24.8-24.2-10.142-6.031-19.322-9.09-27.285-9.09a24.279,24.279,0,0,0-17.514,6.89c-2.937,2.832-4.489,4.94-5.188,7.05-.694,2.095-.608,4.382.288,7.65,1.056,3.642,3.344,6.988,7.65,11.188,4.353,4.246,11.036,9.633,22.349,18.012,13.655,10.163,22.927,17.337,30.063,23.263A210.826,210.826,0,0,1,2978.5,487.1c7.573,7.879,12.967,14.941,16.975,22.225A85.005,85.005,0,0,1,3004.2,533.8a91.632,91.632,0,0,1,1.537,20.4A85.6,85.6,0,0,1,3003,574c-2.321,8.216-7.057,17.876-13.338,27.2s-13.541,17.483-20.463,23a94.56,94.56,0,0,1-31.206,15.94A131.211,131.211,0,0,1,2899.558,645.627ZM1739,645.3c-13.47-.1-18.96-.556-26.7-2.2a139.706,139.706,0,0,1-17.792-4.831,102.887,102.887,0,0,1-15.495-6.819,99.839,99.839,0,0,1-13.977-9.219A128.908,128.908,0,0,1,1651.8,610.2a152.467,152.467,0,0,1-21.773-28.762,155.583,155.583,0,0,1-14.414-32.962,166.125,166.125,0,0,1-6.745-36.15A182.971,182.971,0,0,1,1610.1,474a161.078,161.078,0,0,1,7.063-29.383,187.786,187.786,0,0,1,12.463-28.6c10.145-18.867,23.069-35.366,37.375-47.712a171.848,171.848,0,0,1,17.95-13.52,175.887,175.887,0,0,1,19.525-11.092,166.563,166.563,0,0,1,20.463-8.336A146.308,146.308,0,0,1,1745.7,330.1a160.277,160.277,0,0,1,26.426-2,123.591,123.591,0,0,1,20.173,1.4,105.877,105.877,0,0,1,45.3,20.1,86.3,86.3,0,0,1,10.462,9.113A104.934,104.934,0,0,1,1857.4,370c.377.512.731,1,1.044,1.438l.005.007,0,.007c1.385,1.922,2.3,3.192,2.974,3.192,1.183,0,1.687-3.934,3.033-14.447.167-1.3.345-2.695.54-4.2,1.11-8.58,2.3-16.7,2.6-18.3l.6-2.7h75l-.6,3.7c-.4,2.572-10.919,77.909-21.1,151-9.873,70.889-20.5,147.346-20.5,147.7,0,.283-15.823.6-37,.6-18.177,0-27.3,0-32.037-.25S1827,637.005,1827,636c0-2.212,2.748-23.252,3.5-26.8a.686.686,0,0,0-.025-.562.286.286,0,0,0-.238-.1c-.86,0-3.674,2.007-10.038,7.158a178.223,178.223,0,0,1-19.578,13.949,106.919,106.919,0,0,1-18.847,9.139,101.071,101.071,0,0,1-19.935,5A154.341,154.341,0,0,1,1739,645.3Zm36.748-247.9a96.089,96.089,0,0,0-16.048,1.1,86.165,86.165,0,0,0-24.65,8.787A93.117,93.117,0,0,0,1713.4,423.5a100.119,100.119,0,0,0-11.7,13.587A94.348,94.348,0,0,0,1693,452.4a100.667,100.667,0,0,0-7.2,21.55,118.6,118.6,0,0,0-2.667,23.125,108.285,108.285,0,0,0,1.889,22.488A76.325,76.325,0,0,0,1691.5,539.2a72.775,72.775,0,0,0,11.56,16.794,68.431,68.431,0,0,0,15.288,12.381,71.645,71.645,0,0,0,18.375,7.658,81.793,81.793,0,0,0,20.818,2.622A93.824,93.824,0,0,0,1768.5,578a100,100,0,0,0,20.815-4.7,80.594,80.594,0,0,0,17.91-8.8,82.065,82.065,0,0,0,15.247-13.078A104.955,104.955,0,0,0,1835.3,533.9a123.213,123.213,0,0,0,12.7-28.762,106.788,106.788,0,0,0,4-29.737c0-12.765-1.865-23.687-5.7-33.388a71.168,71.168,0,0,0-17.7-25.813,74.216,74.216,0,0,0-30.1-16.8C1793.817,398.188,1784.886,397.4,1775.748,397.4ZM2289.6,638h-67.5l-.6-5.3c-.283-2.645-7.685-84.56-18-199.2-9.635-107.1-17.793-196.337-18.1-199.3l-.6-5.2h35.6c19.963,0,35.6.308,35.6.7,0,.714,14.807,166.072,20.382,228.322,1.61,17.982,2.774,30.974,2.817,31.478,0,.01.006.015.013.015.712,0,28.609-58.011,62.188-129.315L2403.3,229h29.4c16.43,0,29.3.308,29.3.7,0,1.119,12.318,66.54,23.762,126.85,11.806,62.213,23.889,125.351,24.138,125.65a.006.006,0,0,0,.005,0c.583,0,22.644-61.732,43.1-119.5,11.279-32,22.022-62.425,29.866-84.643l.04-.112.345-.977c8.363-23.688,13.888-39.337,14.548-41.268l2.5-6.7h37.5c30.614,0,36.127.082,36.928,1.109a.634.634,0,0,1,.072.591c-.308,1.026-32.807,92.963-70.3,198.8-32.13,90.617-59.658,168.591-68.7,194.214l-.732,2.073c-1.315,3.726-2.109,5.975-2.265,6.413l-2,5.8h-63.5l-3.5-18.3c-1.664-8.318-9.735-50.739-25.4-133.5C2426.562,423.755,2416.3,371,2416,371c-.325,0-32.076,67.05-63.4,133.5l-63,133.5Zm409.9,0c-29.439,0-37.5-.28-37.5-1.3,0-.664,10.227-76.143,19.85-146.825,9.9-72.7,20.152-147.635,20.75-151.175l.6-3.7h36.9c16.115,0,25.83.044,31.012.275,4.977.222,5.887.62,5.887,1.325,0,.9-8.972,68.188-20,150-11.447,84.808-20,149.034-20,149.8,0,.684-1,1.1-6.262,1.325C2725.375,637.956,2715.622,638,2699.5,638Zm-661.7,0h-37.4c-35.653,0-37.4-.089-37.4-1.9,0-.934,10.283-77.01,19.838-147.3,9.558-70.317,20.1-147.439,20.662-150.6l.6-3.2H2071l-.5,3.7c-1.822,12.656-4.406,33.694-4.1,34a.062.062,0,0,0,.047.018c.3,0,1.467-1.5,2.653-3.418,3.828-6.145,13.586-17.388,19.7-22.7a99.22,99.22,0,0,1,10.923-8.33,64.175,64.175,0,0,1,10.674-5.663,54.646,54.646,0,0,1,10.983-3.228,64.708,64.708,0,0,1,11.851-1.025c.9,0,1.83.015,2.769.047,5.63.194,12.042.881,14,1.5a20.076,20.076,0,0,1,5.5,2.5c.914.625,1.357,1.2-.163,5.838-1.463,4.463-4.734,12.7-11.338,29.162-7.466,18.923-13.818,33.6-14.3,33.6a49.837,49.837,0,0,1-6.4-1.6,23.8,23.8,0,0,0-6.7-.939c-5.877,0-12.211,2.011-18.317,5.815A59.357,59.357,0,0,0,2081.6,420.4c-5.649,8.012-8.71,14.111-12.6,25.1-4.314,12.249-7.356,24.428-10.5,42.038s-6.618,41.922-12,83.963c-4.066,32.134-7.783,60.589-8.1,62.7l-.6,3.8Zm716.708-333.344h0a46.337,46.337,0,0,1-17.554-3.459,47.106,47.106,0,0,1-14.843-9.61A45.362,45.362,0,0,1,2708,258.5a45.936,45.936,0,0,1,3.062-16.862A44.481,44.481,0,0,1,2720.2,227.4a50.168,50.168,0,0,1,15.656-11.431,43.217,43.217,0,0,1,18-3.863,49.672,49.672,0,0,1,9.248.895,47.637,47.637,0,0,1,33,25.5c1.68,3.46,2.506,5.235,2.937,7.75.442,2.575.462,5.971.462,12.25,0,6.228-.02,9.6-.449,12.15-.419,2.49-1.22,4.24-2.85,7.65a48.664,48.664,0,0,1-9.075,12.525,44.5,44.5,0,0,1-32.618,13.831Z" transform="translate(-7383 -11365)" fill="#111"/>
    <g id="CarWise_Final_Logo_Black_and_Red" data-name="CarWise Final Logo Black and Red" transform="translate(-7219.374 -10524.98)">
      <path id="Path_208189" data-name="Path 208189" d="M398.5-681.9c-47.7,3-103.5,11.1-151.5,22-28,6.3-66.9,17.3-65.7,18.5.3.3,6.9-.6,14.8-2,73.9-13,150.6-16.1,220.4-9,81.8,8.3,163.8,32.3,226.9,66.5,32.8,17.9,52.5,32.7,80.9,60.7,41.6,41.1,64.9,80.5,73.9,125.3,3.3,16.4,3.3,47.3,0,63.6-10,49.9-36.9,95.6-81.8,139.3-18.5,17.9-21.9,20.5-41.9,32C641-145.9,596.4-124.9,561-111.7,444.6-68.1,324-57.9,207.5-81.6,145.4-94.3,82.6-117.5,36.2-145c-5.7-3.4-10.6-6-10.8-5.7-.6.6,9.2,9.7,18.7,17.4C111.3-78.8,225.5-38.4,356.3-22.9c32,3.8,90.3,3.5,141.2-.6C637.5-35,757-76.8,839.6-143.2c14.7-11.8,30.9-27.1,38.9-36.8,3.3-4,9.6-11.6,14.1-16.9,28.1-33.8,47.7-70,56.9-105.3,5-19.6,6.7-32.5,6.7-52.8,0-19.6-1.6-32.8-6.3-51.4-14.1-56.3-55-114.4-110.3-156.8C747.7-633.7,636.3-673,503.2-682,485.6-683.1,417.9-683.1,398.5-681.9Z" fill="#d52927"/>
      <path id="Path_208190" data-name="Path 208190" d="M288.5-647.4c-31.6,1.9-72.7,6.1-80,8.3-2.5.8-2,.9,3.5,1,90.4,1.6,167.7,13.1,232.5,34.6,35.1,11.7,58.8,22.8,85,39.9,70.4,46.1,109.6,94.6,121.6,150.4,3,14,3.7,38.3,1.5,53-6.1,41-24.6,79.1-56.5,116.5-5.6,6.6-11.4,11.7-22.1,19.6-67,49.7-138,81.3-216.5,96.5-32.1,6.2-56.5,8.6-92.5,9.3-45.9.9-81.9-2.3-127.5-11.3-30.5-6-73.8-18.6-95.4-27.8-13.5-5.7-11.9-3.6,6.2,8.6C89.1-121.4,150.7-102,223.7-93.5c69.7,8.1,166.9,6.6,207.7-3.1,106.2-25.3,186-59.5,242.1-103.8,13.5-10.7,35.4-32.8,44.8-45.3,18.8-25.2,31.1-52.8,36.2-81.3,2.6-14.7,3.1-40.8,1.1-56.8-4.1-32-16.5-67.4-33.5-95.5-11-18.3-46.9-53.4-76.1-74.3-74.8-53.8-161.3-83.2-272-92.4C361.5-647.1,299.7-648.1,288.5-647.4Z" fill="#d52927"/>
    </g>
  </g>
</svg>
