<?xml version="1.0" encoding="UTF-8"?>
<svg id="Layer_2" xmlns="http://www.w3.org/2000/svg" version="1.1" viewBox="0 0 2236.7 591.9">
  <!-- Generator: Adobe Illustrator 29.2.1, SVG Export Plug-In . SVG Version: 2.1.0 Build 116)  -->
  <defs>
    <style>
      .st0 {
        fill: #111;
      }
    </style>
  </defs>
  <g id="Group_94">
    <path class="st0" d="M688.8,572c-2.5-9.1-4.3-14.7-6.1-18.8s-3.7-6.7-6.2-8.8c-1.6-1.4-2.4-2.4-2.3-3,0-.2.2-.3.3-.3,1.8-.6,4.2-2.3,6.7-4.7,2.3-2.2,4.2-4.7,5.8-7.4,2.3-4.4,2.8-6.6,2.8-12.3,0-3.8-.4-7.5-1.2-11.2-1.8-5.9-9-12.8-16.3-15.7-2.6-1.1-5.4-1.7-8.2-2-3.5-.3-8.5-.4-18.3-.5-2,0-4.1,0-6.2,0-9.1,0-17,.2-19,.3l-4.8.4v102.9h23v-41.3l6.3.7c5.3.6,9.1,1.5,11.8,4.4,2.7,2.9,4.3,7.6,5.9,14.4,1.6,6.2,3.2,12.3,4.2,15.5l1.9,6.3h12.6c8.4,0,11.4,0,12-.8.2-.3.2-.7,0-1-.3-.9-2.4-8.7-4.6-17.1h0ZM661.1,528.4c-3.2,2.5-8.1,4-14.5,4.3l-7.9.5v-28.3h8.3c2.8,0,5.5.2,8.2.8,2.1.4,4.1,1.2,5.9,2.4,1.5,1,2.7,2.4,3.5,4,.8,1.8,1.2,3.7,1.2,5.6,0,4.6-1.5,8.2-4.8,10.7h0Z"/>
    <path class="st0" d="M645.9,403.6c6.4-5.1,9.2-7.2,10-7.2s.2,0,.2.1c0,.2,0,.4,0,.6-.8,3.5-3.5,24.6-3.5,26.8s.2,1.5,5,1.8,13.9.2,32,.2,37-.3,37-.6,10.6-76.8,20.5-147.7c10.2-73.1,20.7-148.4,21.1-151l.6-3.7h-75l-.6,2.7c-.3,1.6-1.5,9.7-2.6,18.3-.2,1.5-.4,2.9-.5,4.2-1.3,10.5-1.8,14.4-3,14.4s-1.6-1.3-3-3.2h0c-.3-.4-.7-.9-1-1.4-2.8-4-6-7.8-9.3-11.3-3.2-3.3-6.7-6.4-10.5-9.1-13.3-10.2-28.8-17.1-45.3-20.1-6.7-1-13.4-1.5-20.2-1.4-8.8,0-17.7.6-26.4,2-7,1.2-14,3-20.8,5.3-7,2.3-13.8,5.1-20.5,8.3-6.7,3.3-13.3,7-19.5,11.1s-12.3,8.6-18,13.5c-14.3,12.4-27.2,28.8-37.4,47.7-4.9,9.2-9.1,18.7-12.5,28.6-3.3,9.6-5.6,19.4-7.1,29.4-1.8,12.7-2.2,25.5-1.2,38.3.9,12.3,3.2,24.4,6.7,36.1,3.5,11.5,8.4,22.6,14.4,33,6.1,10.4,13.4,20.1,21.8,28.8,4.1,4.3,8.5,8.3,13.2,12,4.4,3.5,9.1,6.5,14,9.2,5,2.7,10.2,5,15.5,6.8,5.8,2,11.8,3.6,17.8,4.8,7.7,1.6,13.2,2.1,26.7,2.2,7.6,0,15.3-.5,22.8-1.5,6.8-1,13.5-2.7,19.9-5,6.6-2.4,12.9-5.5,18.8-9.1,6.8-4.2,13.4-8.9,19.6-14h0ZM594.2,365.9c-3.6.4-7.3.6-11,.7-7,0-14-.9-20.8-2.6-6.5-1.7-12.6-4.3-18.4-7.7-5.7-3.4-10.8-7.5-15.3-12.4-4.6-5-8.5-10.7-11.6-16.8-3-6.2-5.2-12.8-6.5-19.6-1.4-7.4-2-15-1.9-22.5.1-7.8,1-15.5,2.7-23.1,1.6-7.4,4-14.7,7.2-21.6,2.4-5.4,5.3-10.5,8.7-15.3,3.5-4.9,7.4-9.4,11.7-13.6,6.4-6.4,13.7-11.9,21.7-16.2,7.7-4.2,16-7.1,24.7-8.8,5.3-.8,10.7-1.2,16-1.1,9.1,0,18.1.8,22.8,2,11.2,3.2,21.5,8.9,30.1,16.8,7.7,7.2,13.8,16,17.7,25.8,3.8,9.7,5.7,20.6,5.7,33.4,0,10-1.3,20.1-4,29.7-3,10.1-7.3,19.8-12.7,28.8-3.7,6.3-8,12.1-12.8,17.5-4.5,5-9.7,9.4-15.2,13.1-5.6,3.7-11.6,6.6-17.9,8.8-6.8,2.3-13.7,3.9-20.8,4.7h0Z"/>
    <path class="st0" d="M766.4,542.2c-5-5.5-9.5-8.4-19.2-12.3-7.8-3.1-13.3-5.5-16.2-7.8s-3.4-4.6-3.1-7.5c.2-2.3,1.2-3.8,3.7-5.4,2.3-1.5,6.5-2.4,11.5-2.4,4.7,0,9.3.7,13.7,2.1,2,.8,4.1,1.4,6.3,1.7.1,0,.2,0,.3,0,1.1-2.8,2.1-5.8,2.9-8.7,1-3.1,1.8-6.2,2.4-9.4,0-.6-2.7-2-5.7-3-4.4-1.4-12.5-2.3-21.1-2.3s-13.2.6-16.5,1.7c-4.3,1.3-8.3,3.3-11.8,6-3.2,2.6-5.8,5.9-7.7,9.6-1.9,4-2.9,8.3-2.8,12.7,0,4.9.8,9.4,2.3,12.3,2.2,4,5.3,7.5,9,10.2,4.5,3.3,9.5,5.9,14.7,7.8,7.7,2.9,12.1,5,14.8,7.1,2.5,1.7,3.9,4.5,3.8,7.5,0,4.5-3.7,8.6-8.7,9.5-2,.3-4,.5-6.1.5-4.1,0-8.2-.5-12.3-1.4-4.4-1-8.8-2.3-13-4.1-.1,0-.3,0-.4,0-1,0-1.8,1.9-3.4,8.7-1.3,5.4-2.2,9.8-2.2,10.5s3.3,2.3,7.3,3.5c6.1,2,9.2,2.3,22.2,2.3s15.5-.3,20.8-2.3c3.1-1.3,6.1-2.9,8.8-4.9,2.5-1.8,4.7-4,6.5-6.4,1.8-2.3,3.1-5,4-7.7.9-2.9,1.4-5.9,1.4-8.9.1-3.6-.3-7.3-1.4-10.7-1.1-3-2.7-5.9-4.9-8.3h0Z"/>
    <path class="st0" d="M334.2,408.4c6.8-3.3,15.9-8.3,23.8-13,7.8-4.7,12.7-8.1,12.7-8.8s-10.6-14.6-21.1-28.6c-10.5-14-21.9-29.1-23.6-31.1,0,0-.2-.1-.3-.1-.9,0-3.8,1.9-13.2,8.2-26.8,18.1-62.5,28.5-97.9,28.5-8.3,0-16.6-.6-24.9-1.8-8-1.2-15.9-3-23.5-5.5-10-3.2-19.5-7.7-28.4-13.3-8.8-5.5-16.9-12.1-24.2-19.6-7.2-7.3-13.4-15.5-18.6-24.4-5.1-8.7-9-18-11.7-27.8-6.8-26.6-5.9-54.6,2.6-80.7,4.4-13.2,10.6-25.8,18.4-37.3,7.8-11.6,17.1-22.1,27.6-31.2,10.7-9.3,22.5-17.3,35.2-23.8,13.1-6.6,26.9-11.6,41.1-14.9,9.6-2.1,23-3.4,36-3.4,6.7,0,13.4.4,20.1,1.3,13.5,2.1,26.6,6.2,38.9,12,11.9,5.7,22.8,13.2,32.3,22.3l7.6,7.2,4.6-4.1c18.5-16.8,51-47.3,51-48s-2.4-3-4.8-5.2c-17-15.3-36.2-28-57-37.7-20.6-9.5-42.6-15.9-65.2-18.8-7-.9-22.2-1.6-36.2-1.6s-13.9.2-17.8.6c-20.2,1.9-40.1,6.2-59.3,12.8-37.4,13-70.9,35.1-97.5,64.4-13.5,14.9-25.2,31.4-34.6,49.2-9.2,17.2-16.2,35.6-20.6,54.6C1.3,207.4-.6,226.2.2,245.1c1.7,45.1,18.2,88.4,46.9,123.2,4.3,5.2,8.8,10.2,13.7,14.9,9.5,9.2,20,17.3,31.4,24.1,5.8,3.4,11.7,6.5,17.9,9.3,6.3,2.9,12.8,5.4,19.4,7.5,6.7,2.2,13.8,4.2,21.1,5.8,7.2,1.6,14.9,3,22.8,4.2,5.4.8,17.7,1.2,32.9,1.2h0c1.5,0,3,0,4.6,0,23.6,0,30.5-.4,43-2.3,30.3-4.6,55.9-12.4,80.5-24.6h0Z"/>
    <path class="st0" d="M878.7,517.4c-5.2-13.8-15.5-24.1-28.3-28.3-4.3-1.4-10.8-2.2-17.7-2.2-5.5-.1-10.9.5-16.2,2-4,1.3-7.9,3.2-11.4,5.5-3.5,2.4-6.7,5.2-9.4,8.4-2.8,3.3-5.2,7-7.1,10.8-2,4.1-3.5,8.4-4.4,12.9-1.4,6.4-1.8,12.9-1.2,19.4.5,6.1,2,12,4.3,17.6,2.2,5.3,5.4,10.2,9.3,14.5,3.9,4.2,8.6,7.6,13.8,10,6,2.8,8,3.2,17.8,3.6,1.5,0,3,0,4.3,0,8,0,14.2-1,19.7-3.1,5.7-2.3,10.9-5.8,15.1-10.2,5.2-5,9.2-11.2,11.5-18,2.2-6.6,3.1-14.5,2.7-24.6-.4-9.8-1-13.8-2.8-18.5h0ZM855.6,549.2c-.8,4.1-2.3,8.1-4.3,11.7-1.8,3.3-4.3,6.2-7.3,8.4-3.2,2.3-7.1,3.6-11.1,3.6-2.6,0-5.2-.5-7.6-1.6-2.6-1.1-5-2.7-7.1-4.6-7.4-6.9-10.8-19.2-9.3-33.7.5-5.5,2.2-10.9,5-15.7,2.5-4.2,6.1-7.5,10.4-9.5,2.5-1.2,5.3-1.8,8.2-1.8h0c4.5,0,9,1.6,12.5,4.4,4,3.1,7.1,7.4,8.8,12.1,1.6,4.3,2.5,8.7,2.8,13.3.3,4.5,0,9-.9,13.4h0Z"/>
    <path class="st0" d="M397.8,572c-2.5-9.1-4.3-14.7-6.1-18.8s-3.7-6.7-6.2-8.8c-1.6-1.4-2.4-2.4-2.3-3,0-.2.1-.3.3-.3,1.8-.6,4.2-2.3,6.6-4.7,2.3-2.2,4.2-4.7,5.8-7.4,2.3-4.4,2.8-6.6,2.8-12.3,0-3.8-.4-7.5-1.2-11.2-1.8-5.9-9-12.8-16.3-15.7-2.6-1.1-5.4-1.8-8.2-2-3.5-.3-8.5-.4-18.3-.5-2,0-4.1,0-6.2,0-9.1,0-17,.2-19,.3l-4.8.4v102.9h23v-41.3l6.3.7c5.3.6,9.1,1.5,11.8,4.4,2.7,2.9,4.3,7.6,5.9,14.4,1.5,5.9,3.2,12.3,4.2,15.5l1.9,6.3h12.6c8.4,0,11.4,0,12-.8.2-.3.2-.7,0-1-.3-.9-2.4-8.7-4.6-17.1h0ZM370.1,528.4c-3.2,2.5-8.1,4-14.5,4.3l-7.9.5v-28.3h8.3c2.8,0,5.5.2,8.3.8,2.1.4,4.1,1.2,5.9,2.4,1.5,1,2.7,2.4,3.5,4,.8,1.8,1.2,3.7,1.2,5.6,0,4.6-1.5,8.2-4.8,10.7h0Z"/>
    <path class="st0" d="M202.7,517.4c-5.2-13.8-15.5-24.1-28.3-28.3-4.3-1.4-10.8-2.2-17.7-2.2-5.5-.1-10.9.5-16.2,2-4,1.3-7.9,3.2-11.4,5.5-3.5,2.4-6.7,5.2-9.4,8.4-2.8,3.3-5.2,7-7.1,10.8-2,4.1-3.4,8.4-4.4,12.9-1.4,6.4-1.8,12.9-1.2,19.4.5,6.1,2,12,4.3,17.6,2.2,5.3,5.4,10.2,9.3,14.5,3.9,4.2,8.6,7.6,13.8,10,6,2.8,8,3.2,17.8,3.6,1.5,0,2.9,0,4.3,0,8,0,14.2-1,19.6-3.1,5.7-2.3,10.9-5.8,15.1-10.2,5.2-5,9.2-11.2,11.5-18,2.2-6.6,3.1-14.5,2.7-24.6-.4-9.8-1-13.8-2.8-18.5h0ZM179.6,549.2c-.8,4.1-2.3,8.1-4.3,11.7-1.8,3.3-4.3,6.2-7.3,8.4-3.2,2.3-7.1,3.6-11.1,3.6-2.6,0-5.2-.5-7.6-1.6-2.6-1.1-5.1-2.7-7.1-4.6-7.4-6.9-10.8-19.2-9.3-33.7.5-5.5,2.2-10.9,5-15.7,2.4-4.2,6.1-7.5,10.4-9.5,2.6-1.2,5.3-1.8,8.2-1.8h0c4.6,0,8.9,1.6,12.5,4.4,4,3.1,7.1,7.4,8.8,12.1,1.6,4.3,2.5,8.7,2.8,13.3.3,4.5,0,9-.9,13.4h0Z"/>
    <path class="st0" d="M280.2,558.5l-2.5,4.9c-1.5,2.9-3.7,5.3-6.4,7-2.6,1.6-5.5,2.4-8.5,2.4-4.7,0-9.2-2-12.4-5.5-2.6-2.8-4-5.2-4.7-11.5-.8-6.2-.9-16.1-.9-34.6v-33.3h-24v34.8c0,27.7.3,36,1.5,40.5,1.5,6.4,4.5,12.3,8.7,17.3,4,4.5,9.1,7.8,14.9,9.5,4.1,1.3,8.4,2,12.7,1.8h0c1.5,0,3.4,0,6-.1,10.6-.3,12.4-.6,18.4-3.5,11-5.2,18-14.3,20.7-27.1.7-3.2,1.1-17.9,1.1-39.2v-34h-23.9l-.6,70.6h0Z"/>
    <path class="st0" d="M107.4,488.7c-.3-.5-2.3-.7-7.1-.7s-3.6,0-6.1,0l-13.7.3-4,9.5c-2.2,5.1-6,14.6-8.7,21.3l-4.8,11.8-2.2-5.8c-1.2-3.1-5.2-12.8-8.9-21.6l-6.6-15.7h-13.8c-7.9,0-13.8.2-13.8.4s6.8,13.2,16,30.4l16,29.9v42.3h24v-41.6l16.6-29.5c8.3-14.7,16.8-30,17.1-30.7,0-.1,0-.2,0-.4h0Z"/>
    <path class="st0" d="M517,504.3c-4.5-8.4-12.5-14-23.1-16.3-3-.6-14.9-.9-25-.9s-15.1.2-18.9.5l-4.3.4v102.9h23v-36h8.8c9.6,0,17.8-1.6,24.4-4.7,6.3-2.8,11.4-7.7,14.6-13.7,2.5-4.7,2.7-6,2.7-16.6,0-3.4,0-6.8-.4-10.2-.2-1.9-.9-3.7-1.8-5.4h0ZM493.7,528.5c-3.2,5.1-9.4,7.5-19.4,7.5s-1.2,0-1.8,0h-3.8v-15c0-6.7,0-10.4.3-12.6.2-2.1.7-2.6,1.5-2.8,1.9-.5,3.9-.7,5.9-.7,3.4,0,6.7.6,9.9,1.8,2.8.9,5.2,2.6,7.2,4.8,1.4,1.8,2.2,4.8,2.3,8.2.1,3.1-.6,6.2-2.1,8.9h0Z"/>
    <polygon class="st0" points="558.7 547.9 595.7 547.9 595.7 528.9 558.7 528.9 558.7 507.9 598.7 507.9 598.7 487.9 534.7 487.9 534.7 590.9 600.7 590.9 600.7 570.9 558.7 570.9 558.7 547.9"/>
    <path class="st0" d="M1562.7,89.1c5.6,2.3,11.5,3.5,17.6,3.5h0c12.3,0,24.1-4.9,32.6-13.8,3.7-3.7,6.7-7.9,9.1-12.5,1.6-3.4,2.4-5.2,2.8-7.7.4-2.5.4-5.9.4-12.2s0-9.7-.5-12.2c-.4-2.5-1.3-4.3-2.9-7.8-6.5-13.1-18.7-22.5-33-25.5-3.1-.6-6.1-.9-9.2-.9-6.2,0-12.3,1.3-18,3.9-5.9,2.8-11.2,6.6-15.7,11.4-3.9,4.1-7,8.9-9.1,14.2-2.1,5.4-3.1,11.1-3.1,16.9,0,12.5,5.1,24.5,14.1,33.1,4.3,4.1,9.3,7.4,14.8,9.6h0Z"/>
    <path class="st0" d="M1831.4,342.1c.2-6.8-.3-13.7-1.5-20.4-1.6-8.6-4.6-16.8-8.7-24.5-4-7.3-9.4-14.4-17-22.2-5.8-6-12-11.7-18.4-17-7.1-5.9-16.4-13.1-30.1-23.3-11.3-8.4-18-13.8-22.3-18-4.3-4.2-6.6-7.6-7.7-11.2-.9-3.3-1-5.6-.3-7.6.7-2.1,2.2-4.2,5.2-7.1,4.7-4.6,11-7,17.5-6.9,8,0,17.1,3.1,27.3,9.1,6.6,4,19.1,16.2,24.8,24.2,2.2,3.1,4.3,5.7,4.6,5.7s8.8-13.1,18.3-28.5l17.8-28.5-4.3-5.8c-3.6-4.7-7.7-9.1-12-13.1-4.3-4.2-8.9-8-13.8-11.4-5.4-3.6-11.2-6.8-17.1-9.5-5.8-2.7-11.8-5-18-6.8-8.1-2.2-12.2-2.7-26-3-2.3,0-4.4,0-6.4,0-5.9,0-11.7.3-17.5,1.2-5.2.9-10.3,2.3-15.2,4.1-7.2,2.6-14.1,5.9-20.6,10-6.2,3.8-11.8,8.4-16.9,13.5-4.9,4.9-9.2,10.5-12.7,16.5-3.4,5.9-6.1,12.3-7.8,18.9-1.5,6.8-2.3,13.6-2.2,20.6,0,6.9.6,13.7,2.2,20.4,3.2,12.3,9.1,23.8,17.2,33.6,8.4,10.5,20,21.1,36.4,33.4,9.2,6.8,20.3,15,25.5,18.9,12.8,9.6,20.2,16.7,23.9,22.8,1.8,2.7,2.8,5.9,2.9,9.1,0,3.2-.8,6.3-2.2,9.1-4.9,9.9-14.4,14.8-29.1,14.9h-.3c-4.9,0-9.8-.5-14.7-1.7-4.8-1.1-9.6-2.9-14-5.1-4.8-2.4-9.4-5.3-13.6-8.5-4.8-3.7-9.2-7.8-13.4-12.1-3.9-4.1-8.1-8.7-9.3-10.2-1.1-1.5-2.3-2.5-2.9-2.5s0,0-.1,0c-.5.1-11.1,12.1-23.7,26.8l-22.8,26.4,12.5,12.2c13.3,12.9,25.6,22.6,37.6,29.4,5.8,3.4,12,6.2,18.3,8.5,6.1,2.2,12.5,3.9,18.9,4.9,8.4,1.4,17,2.1,25.6,2.1,13,0,26-1.8,38.4-5.5,11.3-3.3,21.9-8.7,31.2-15.9,6.9-5.5,14.2-13.7,20.5-23,6.3-9.3,11-19,13.3-27.2,1.7-6.5,2.6-13.1,2.7-19.8h0Z"/>
    <path class="st0" d="M1892,504.3c-4.5-8.4-12.5-14-23.1-16.3-3-.6-14.8-.9-25-.9s-15.1.2-18.9.5l-4.3.4v102.9h23v-36h8.8c9.6,0,17.8-1.6,24.4-4.7,6.3-2.8,11.4-7.7,14.6-13.7,2.5-4.7,2.7-6,2.7-16.6,0-3.4,0-6.8-.4-10.2-.2-1.9-.9-3.7-1.8-5.4h0ZM1868.7,528.5c-3.2,5.1-9.4,7.5-19.4,7.5s-1.2,0-1.8,0h-3.8v-15c0-6.7,0-10.4.3-12.6.2-2.1.7-2.6,1.5-2.8,1.9-.5,3.9-.7,5.9-.7,3.4,0,6.7.6,9.9,1.8,2.8.9,5.2,2.6,7.2,4.8,1.4,1.8,2.2,4.8,2.3,8.2,0,3.1-.6,6.2-2.1,8.9h0Z"/>
    <path class="st0" d="M1802.7,517.4c-5.2-13.8-15.5-24.1-28.3-28.3-4.3-1.4-10.8-2.2-17.7-2.2-5.5-.1-10.9.5-16.2,2-4,1.3-7.9,3.2-11.4,5.5-3.5,2.4-6.7,5.2-9.4,8.4-2.8,3.3-5.2,7-7.1,10.8-2,4.1-3.4,8.4-4.4,12.9-1.4,6.4-1.8,12.9-1.2,19.4.5,6.1,2,12,4.3,17.6,2.2,5.3,5.4,10.2,9.3,14.5,3.9,4.2,8.6,7.6,13.8,10,6,2.8,8,3.2,17.8,3.6,1.5,0,2.9,0,4.3,0,8,0,14.2-1,19.7-3.1,5.7-2.3,10.9-5.8,15.1-10.2,5.2-5,9.2-11.2,11.5-18,2.2-6.6,3.1-14.5,2.7-24.6-.4-9.8-1-13.8-2.8-18.5h0ZM1779.6,549.2c-.8,4.1-2.3,8.1-4.3,11.7-1.8,3.3-4.3,6.2-7.3,8.4-3.2,2.3-7.1,3.6-11.1,3.6-2.6,0-5.2-.5-7.6-1.6-2.6-1.1-5-2.7-7.1-4.6-7.4-6.9-10.8-19.2-9.3-33.7.5-5.5,2.2-10.9,5-15.7,2.4-4.2,6.1-7.5,10.4-9.5,2.6-1.2,5.3-1.8,8.2-1.8h0c4.6,0,8.9,1.6,12.5,4.4,4,3.1,7.1,7.4,8.8,12.1,1.6,4.3,2.5,8.7,2.8,13.3.3,4.5,0,9-.9,13.4h0Z"/>
    <path class="st0" d="M1980,504.3c-4.5-8.4-12.5-14-23.1-16.3-3-.6-14.9-.9-25-.9s-15.1.2-18.9.5l-4.3.4v102.9h23v-36h8.8c9.6,0,17.8-1.6,24.4-4.7,6.3-2.8,11.4-7.7,14.6-13.7,2.5-4.7,2.7-6,2.7-16.6,0-3.4,0-6.8-.4-10.2-.2-1.9-.9-3.7-1.8-5.4h0ZM1956.7,528.5c-3.2,5.1-9.4,7.5-19.4,7.5s-1.2,0-1.8,0h-3.8v-15c0-6.7,0-10.4.3-12.6.2-2.1.7-2.6,1.5-2.8,1.9-.5,3.9-.7,5.9-.7,3.4,0,6.7.6,9.9,1.8,2.8.9,5.2,2.6,7.2,4.8,1.4,1.8,2.2,4.8,2.3,8.2,0,3.1-.6,6.2-2.1,8.9h0Z"/>
    <polygon class="st0" points="1667.7 526.9 1630.7 526.9 1630.7 487.9 1606.7 487.9 1606.7 590.9 1630.7 590.9 1630.7 547.9 1667.7 547.9 1667.7 590.9 1691.7 590.9 1691.7 487.9 1667.7 487.9 1667.7 526.9"/>
    <polygon class="st0" points="2021.7 547.9 2058.7 547.9 2058.7 528.9 2021.7 528.9 2021.7 507.9 2061.7 507.9 2061.7 487.9 1997.7 487.9 1997.7 590.9 2063.7 590.9 2063.7 570.9 2021.7 570.9 2021.7 547.9"/>
    <path class="st0" d="M2174.7,371c0-.5-16.6-9.3-32-17.4s-32.4-16.7-33.2-16.7-3.6,2.1-6.7,4.5c-3.3,2.6-6.8,5-10.5,7.1-11.2,6.7-23.5,11.4-36.2,14-5.2.9-10.4,1.3-15.6,1.3-2.4,0-5.1,0-8.3-.2-17.2-.5-23.1-1.8-35.3-7.8-4.8-2.3-9.2-5.3-13.1-8.9-4-3.6-7.5-7.6-10.4-12.1-3-4.7-5.5-9.7-7.3-14.9-1.9-5.6-3.3-11.4-4-17.2l-.6-5.8,120.3-.2,120.4-.3,1.2-9c.9-7,1.4-14,1.3-21.1,0-7.2-.4-14.3-1.3-21.5-.9-7-2.1-14-3.9-20.9-1.6-6.6-3.7-13.1-6.3-19.4-9.2-22.7-22.5-41.6-39.7-56.1s-37.9-24.5-61.7-29.6c-7.5-1.6-14.1-2.1-30.7-2.4-3.9,0-7.2-.1-10.1-.1-6.3,0-12.7.3-19,1-6.2.9-12.3,2.1-18.4,3.7-13.2,3.4-25.9,8.5-37.8,15.3-12.2,6.9-23.5,15.3-33.6,25-10.3,9.7-19.4,20.6-27.2,32.5-7.7,11.8-13.9,24.5-18.4,37.8-3.6,10.9-5.8,18.4-7,26.8-1.2,8.4-1.4,17.7-1.4,32,0,22.8.2,26.9,2.2,36.2,1.4,6.3,3.1,12.5,5.2,18.5,2,5.7,4.4,11.3,7.1,16.7,2.7,5.3,5.8,10.4,9.2,15.2,3.5,4.9,7.3,9.5,11.4,13.9,5.8,6.2,12.3,11.8,19.2,16.7,7,4.9,14.5,9.1,22.4,12.5,8.3,3.6,17,6.4,25.8,8.4,9.7,2.2,19.5,3.7,29.4,4.4,5.5.4,11.1.6,16.6.6h0c11.1,0,22.1-.9,33.1-2.7,10.6-1.7,21.1-4.4,31.2-7.9,9.9-3.4,19.5-7.7,28.6-12.9,9-5,17.4-11,25.3-17.6,4.4-3.9,8.7-8.1,12.7-12.5,4.4-4.8,7.1-8.2,7.1-9h0ZM1973.1,239.1c2.1-5.5,11.1-18.5,17.5-25.4,6.8-7.2,14.7-13.3,23.4-17.9,8.7-4.5,18.1-7.5,27.8-8.9,3.1-.4,6.3-.6,9.4-.5h0c8.6,0,18,1,24.1,2.5,8.2,2.2,16,5.8,22.9,10.7,7,4.8,13,10.8,17.8,17.8,4,5.8,10.7,19.7,10.7,22.2s-16.6,1.3-77.1,1.3-75.6,0-76.5-1.3c0-.1,0-.3,0-.5h0Z"/>
    <path class="st0" d="M2235.3,550.5c-1.1-3-2.7-5.9-4.9-8.3-5-5.5-9.5-8.4-19.2-12.3-7.8-3.1-13.3-5.5-16.2-7.8s-3.4-4.6-3.1-7.5c.2-2.3,1.2-3.8,3.7-5.4,2.3-1.5,6.4-2.4,11.5-2.4,4.6,0,9.3.7,13.7,2.1,2,.8,4.1,1.4,6.3,1.7.1,0,.2,0,.3,0,1.1-2.8,2.1-5.8,2.9-8.7,1-3.1,1.8-6.2,2.4-9.4,0-.6-2.7-2-5.7-3-4.4-1.4-12.5-2.3-21.1-2.3s-13.1.6-16.5,1.7c-4.3,1.3-8.3,3.3-11.8,6-3.2,2.6-5.8,5.9-7.7,9.6-1.9,4-2.9,8.3-2.8,12.7,0,4.9.8,9.4,2.3,12.3,2.2,4,5.3,7.5,9,10.2,4.5,3.3,9.5,5.9,14.7,7.8,7.7,2.9,12.1,5,14.8,7.1,2.5,1.7,3.9,4.5,3.8,7.5,0,4.5-3.7,8.6-8.7,9.5-2,.3-4,.5-6.1.5-4.1,0-8.2-.5-12.3-1.4-4.4-1-8.8-2.3-13-4.1-.1,0-.3,0-.4,0-1,0-1.8,1.9-3.4,8.7-1.3,5.4-2.2,9.8-2.2,10.5s3.3,2.3,7.3,3.5c6.1,2,9.2,2.3,22.2,2.3s15.5-.3,20.8-2.3c3.1-1.3,6.1-2.9,8.8-4.9,2.5-1.8,4.7-4,6.5-6.4,1.8-2.3,3.1-5,4-7.7.9-2.9,1.4-5.9,1.4-8.9.1-3.6-.3-7.3-1.4-10.7h0Z"/>
    <path class="st0" d="M2151.8,572c-2.5-9.1-4.3-14.7-6.1-18.8s-3.7-6.7-6.2-8.8c-1.6-1.4-2.4-2.4-2.3-3,0-.2.1-.3.3-.3,1.8-.6,4.2-2.3,6.6-4.7,2.3-2.2,4.2-4.7,5.8-7.4,2.3-4.4,2.8-6.6,2.8-12.3,0-3.8-.4-7.5-1.2-11.2-1.8-5.9-9-12.8-16.3-15.7-2.6-1.1-5.4-1.7-8.2-2-3.5-.3-8.5-.4-18.3-.5-2,0-4.1,0-6.2,0-9.1,0-17,.2-19,.3l-4.8.4v102.9h23v-41.3l6.3.7c5.3.6,9.1,1.5,11.8,4.4,2.7,2.9,4.3,7.6,5.9,14.4,1.5,5.9,3.2,12.3,4.2,15.5l1.9,6.3h12.6c8.4,0,11.4,0,12-.8.2-.3.2-.7,0-1-.3-.9-2.4-8.7-4.6-17.1h0ZM2124.1,528.4c-3.2,2.5-8.1,4-14.5,4.3l-7.9.5v-28.3h8.3c2.8,0,5.5.2,8.2.8,2.1.4,4.1,1.2,5.9,2.4,1.5,1,2.7,2.4,3.5,4,.8,1.8,1.2,3.7,1.2,5.6,0,4.6-1.6,8.2-4.8,10.7h0Z"/>
    <path class="st0" d="M1475.8,572c-2.5-9.1-4.3-14.7-6.1-18.8s-3.7-6.7-6.2-8.8c-1.6-1.4-2.4-2.4-2.3-3,0-.2.2-.3.3-.3,1.8-.6,4.2-2.3,6.7-4.7,2.3-2.2,4.2-4.7,5.8-7.4,2.3-4.4,2.8-6.6,2.8-12.3,0-3.8-.4-7.5-1.2-11.2-1.8-5.9-9-12.8-16.3-15.7-2.6-1.1-5.4-1.7-8.2-2-3.5-.3-8.5-.4-18.3-.5-2,0-4.1,0-6.2,0-9.1,0-17,.2-19,.3l-4.8.4v102.9h23v-41.3l6.3.7c5.3.6,9.1,1.5,11.8,4.4,2.7,2.9,4.3,7.6,5.9,14.4,1.6,6.2,3.2,12.3,4.2,15.5l1.9,6.3h12.6c8.4,0,11.4,0,12-.8.2-.3.2-.7,0-1-.3-.9-2.4-8.7-4.6-17.1h0ZM1448.1,528.4c-3.2,2.5-8.1,4-14.5,4.3l-7.9.5v-28.3h8.3c2.8,0,5.5.2,8.2.8,2.1.4,4.1,1.2,5.9,2.4,1.5,1,2.7,2.4,3.5,4,.8,1.8,1.2,3.7,1.2,5.6,0,4.6-1.6,8.2-4.8,10.7h0Z"/>
    <path class="st0" d="M1060.1,496.1h0c-1.2-3.9-1.9-6.2-2-6.5-.2-.8-.8-1.2-3.1-1.4-2.3-.2-6.5-.3-13.3-.3h-15.9l-3.5,11.2c-8.2,26.7-27.6,90.6-27.6,91.2s5.3.6,12.4.6c11,0,12.5-.2,13-1.8.3-1,1.9-6.7,3.1-11.2,1.4-5.1,2.8-10.3,3.1-11.3.5-1.5,2.2-1.7,14.8-1.7h14.3l7.6,26h12.9c8.4,0,12.8-.4,12.8-1.1s-6.9-23.4-15.1-49.7c-5.8-18.9-11-35.9-13.5-44h0ZM1051.3,546.1c-.5.7-3,.8-9.9.8s-10.6-.3-10.6-.6,1.8-7.1,4-15.2c2.1-7.8,4.3-16.3,4.7-18.5.3-2.3.8-3.5,1.3-3.5s1,1.2,1.5,3.4c.5,3,6.7,25.2,9,32.3.2.6.3,1,0,1.3Z"/>
    <path class="st0" d="M1242.2,513.5c2.4-1.9,5-3.5,7.9-4.5,4.7-1.5,9.7-2.2,14.7-2.1,4.3,0,8.7.5,12.8,1.6,1.8.6,3.6,1,5.4,1.2,0,0,.1,0,.2,0,1.1-3,1.9-6,2.7-9,1.4-5.5,2.1-8,1.1-9.5-.8-1.4-2.9-1.9-7-2.9-3.5-.9-9.4-1.3-16.2-1.3s-15.7.7-19.6,1.8c-4.5,1.3-8.8,3.1-12.8,5.5-3.9,2.3-7.5,5.1-10.7,8.3-6.4,6.5-10.9,14.5-13.1,23.3-2.1,8.6-1.7,24.2.9,32.6,2.3,7.9,6.7,15,12.7,20.7,6.1,5.6,13.6,9.5,21.7,11.2,5.6,1.1,11.3,1.6,17,1.5,5.5,0,11-.3,16.4-1,5.1-.7,8.4-1.7,9.5-2.7.8-.8.6-3.4-.7-10.2-1.3-6.7-1.9-8.6-2.9-8.6s-.3,0-.4,0c-4,1.5-10.1,2.4-16.7,2.4s-2.5,0-3.8,0c-7.7-.3-9.9-.8-14.5-3.3-2.5-1.3-4.7-3-6.7-5-1.9-1.9-3.5-4.1-4.8-6.5-1.3-2.5-2.2-5.2-2.8-8-.6-3.2-.9-6.3-.9-9.6,0-7.5,1.6-14,4.8-19.2,1.5-2.5,3.5-4.8,5.8-6.7h0Z"/>
    <polygon class="st0" points="1126.7 487.9 1102.7 487.9 1102.7 590.9 1167.7 590.9 1167.7 570.9 1126.7 570.9 1126.7 487.9"/>
    <path class="st0" d="M961,520.1c.4,16.2.9,33.3,1.2,34.8,0,.1,0,.2,0,.2h0c-.3,0-3-5.2-6.3-11.8-3.7-7.6-12.1-23.2-18.7-34.8l-11.7-20.6h-27.8v103h22.3l-.5-36.4-.6-36.3,8.3,16.6c4.8,9.4,13.4,25.6,19.3,36.1l10.9,19.5,12.6.3,12.7.3v-103.1h-22.3l.6,32.2h0Z"/>
    <path class="st0" d="M1585.4,542.2c-5-5.5-9.5-8.4-19.2-12.3-7.8-3.1-13.3-5.5-16.2-7.8s-3.4-4.6-3.1-7.5c.2-2.3,1.2-3.8,3.7-5.4,2.3-1.5,6.4-2.4,11.5-2.4,4.7,0,9.3.7,13.7,2.1,2,.8,4.1,1.4,6.3,1.7.1,0,.2,0,.3,0,1.1-2.8,2.1-5.8,2.9-8.7,1-3.1,1.8-6.2,2.4-9.4,0-.6-2.7-2-5.7-3-4.4-1.4-12.5-2.3-21.1-2.3s-13.2.6-16.5,1.7c-4.3,1.3-8.3,3.3-11.8,6-6.8,5.4-10.7,13.6-10.5,22.3,0,4.9.8,9.4,2.3,12.3,2.2,4,5.3,7.5,9,10.2,4.5,3.3,9.5,5.9,14.7,7.8,7.7,2.9,12.1,5,14.8,7.1,2.5,1.7,3.9,4.5,3.8,7.5,0,4.5-3.7,8.6-8.7,9.5-2,.3-4,.5-6.1.5-4.1,0-8.2-.5-12.3-1.4-4.4-1-8.8-2.3-13-4.1-.1,0-.3,0-.4,0-1,0-1.8,1.9-3.4,8.7-1.3,5.4-2.2,9.8-2.2,10.5s3.3,2.3,7.3,3.5c6.1,2,9.2,2.3,22.2,2.3s15.5-.3,20.8-2.3c3.1-1.3,6.1-2.9,8.8-4.9,2.5-1.8,4.7-4,6.5-6.4,1.8-2.3,3.1-5,4-7.7.9-2.9,1.4-5.9,1.4-8.9.1-3.6-.3-7.3-1.4-10.7-1.1-3-2.7-5.9-4.9-8.3h0Z"/>
    <path class="st0" d="M1596.8,123.2c-5.2-.2-14.9-.3-31-.3h-36.9l-.6,3.7c-.6,3.5-10.8,78.5-20.8,151.2-9.6,70.7-19.8,146.2-19.8,146.8,0,1,8.1,1.3,37.5,1.3s25.9,0,31.2-.3c5.3-.2,6.3-.6,6.3-1.3s8.6-65,20-149.8c11-81.8,20-149.1,20-150s-.9-1.1-5.9-1.3Z"/>
    <path class="st0" d="M1358.5,420.1c.2-.4.9-2.7,2.3-6.4l.7-2.1c9-25.6,36.6-103.6,68.7-194.2,37.5-105.8,70-197.8,70.3-198.8,0-.2,0-.4,0-.6-.8-1-6.3-1.1-36.9-1.1h-37.5l-2.5,6.7c-.7,1.9-6.2,17.6-14.6,41.3l-.3,1h0c-7.8,22.3-18.6,52.8-29.9,84.7-20.5,57.8-42.5,119.5-43.1,119.5h0c-.2-.3-12.3-63.4-24.1-125.6-11.4-60.3-23.8-125.7-23.8-126.8s-12.9-.7-29.3-.7h-29.4l-61.9,131.2c-33.6,71.3-61.5,129.3-62.2,129.3,0,0,0,0,0,0,0-.5-1.2-13.5-2.8-31.5-5.6-62.2-20.4-227.6-20.4-228.3s-15.6-.7-35.6-.7h-35.6l.6,5.2c.3,3,8.5,92.2,18.1,199.3,10.3,114.6,17.7,196.6,18,199.2l.6,5.3h67.5l63-133.5c31.3-66.4,63.1-133.5,63.4-133.5s10.6,52.8,22.4,115.2c15.7,82.8,23.7,125.2,25.4,133.5l3.5,18.3h63.5l2-5.8h0Z"/>
    <path class="st0" d="M924,192.2c6.1-3.8,12.4-5.8,18.3-5.8s4.5.3,6.7.9c2.1.7,4.2,1.2,6.4,1.6.5,0,6.8-14.7,14.3-33.6,6.6-16.5,9.9-24.7,11.3-29.2,1.5-4.6,1.1-5.2.2-5.8-1.7-1.1-3.5-1.9-5.5-2.5-2-.6-8.4-1.3-14-1.5-.9,0-1.9,0-2.8,0-4,0-7.9.3-11.8,1-3.8.7-7.5,1.8-11,3.2-3.7,1.6-7.3,3.4-10.7,5.7-3.8,2.5-7.5,5.3-10.9,8.3-6.1,5.3-15.9,16.6-19.7,22.7-1.2,1.9-2.3,3.4-2.7,3.4s0,0,0,0c-.3-.3,2.3-21.3,4.1-34l.5-3.7h-66.9l-.6,3.2c-.6,3.2-11.1,80.3-20.7,150.6-9.6,70.3-19.8,146.4-19.8,147.3,0,1.8,1.8,1.9,37.4,1.9h37.4l.6-3.8c.3-2.1,4-30.6,8.1-62.7,5.4-42,8.9-66.4,12-84s6.2-29.8,10.5-42c3.9-11,7-17.1,12.6-25.1,4.5-6.4,10.1-11.9,16.7-16.1h0Z"/>
    <path class="st0" d="M1361.1,495.9v-.2c-1.2-3.7-1.9-5.8-1.9-6.1-.2-.8-.8-1.2-3.1-1.4-2.3-.2-6.5-.3-13.3-.3h-15.9l-3.5,11.2c-8.2,26.7-27.6,90.6-27.6,91.2s5.3.6,12.4.6c11,0,12.5-.2,13-1.8.3-.9,1.8-6.3,3.1-11.2,1.4-5.2,2.8-10.3,3.1-11.3.5-1.5,2.2-1.7,14.8-1.7h14.3l7.6,26h12.9c8.4,0,12.8-.4,12.8-1.1s-6.9-23.4-15.1-49.7c-5.7-18.8-10.8-35.3-13.6-44.2h0ZM1352.3,546.1c-.5.7-3,.8-9.9.8s-10.6-.3-10.6-.6,1.8-7.1,4-15.2c2.1-7.9,4.3-16.3,4.7-18.5.3-2.3.8-3.5,1.3-3.5s1,1.2,1.5,3.4c.5,3,6.7,25.2,9,32.3.2.6.3,1,0,1.3Z"/>
  </g>
</svg>